<?xml version="1.0" encoding="UTF-8"?><svg id="Capa_2" xmlns="http://www.w3.org/2000/svg" viewBox="0 0 168.38 67.14"><g id="Capa_1-2"><path d="m65.79,28.24h4.27l-1.31-3.47c-.39-1.05-.69-1.93-.89-2.62-.18.82-.41,1.62-.69,2.41l-1.38,3.67h0Zm-3.6,5.14l4.8-12.52h1.82l5.1,12.52h-1.88l-1.45-3.79h-5.27l-1.36,3.79h-1.76Z" style="fill:#646363; fill-rule:evenodd;"/><path d="m74.67,36.87l-.18-1.42c.34.09.63.14.88.14.34,0,.62-.06.82-.17.21-.11.38-.27.51-.48.09-.15.25-.54.47-1.15.03-.08.07-.21.13-.38l-3.44-9.1h1.64l1.9,5.24c.24.66.47,1.36.66,2.09.18-.69.39-1.37.63-2.04l1.94-5.29h1.53l-3.43,9.23c-.37.99-.66,1.68-.86,2.05-.28.51-.59.88-.94,1.11-.36.24-.78.35-1.27.35-.3,0-.63-.06-.99-.19h0Z" style="fill:#646363; fill-rule:evenodd;"/><path d="m89.4,33.38v-1.35c-.7,1.03-1.66,1.54-2.87,1.54-.53,0-1.03-.1-1.49-.31-.46-.21-.81-.46-1.03-.77-.23-.31-.38-.69-.47-1.14-.07-.3-.1-.78-.1-1.43v-5.61h1.54v5.02c0,.8.03,1.34.09,1.62.1.4.31.72.62.95.31.23.7.34,1.16.34s.89-.12,1.29-.35c.4-.24.69-.56.86-.96.16-.41.25-1,.25-1.77v-4.85h1.54v9.07h-1.39Z" style="fill:#646363; fill-rule:evenodd;"/><path d="m93.21,33.38v-9.07h1.38v1.29c.67-.99,1.63-1.48,2.89-1.48.54,0,1.04.1,1.5.29.46.2.8.45,1.03.77.23.32.39.7.48,1.14.05.28.08.78.08,1.49v5.57h-1.54v-5.51c0-.62-.06-1.09-.17-1.4-.12-.31-.34-.56-.64-.74-.3-.18-.66-.28-1.07-.28-.65,0-1.21.21-1.69.62-.47.42-.71,1.2-.71,2.36v4.95h-1.54Z" style="fill:#646363; fill-rule:evenodd;"/><path d="m106.29,32.01l.21,1.36c-.43.09-.82.14-1.16.14-.56,0-.99-.09-1.3-.27-.3-.18-.52-.41-.64-.7-.13-.29-.19-.89-.19-1.82v-5.23h-1.14v-1.19h1.14v-2.25l1.54-.92v3.17h1.54v1.19h-1.54v5.31c0,.44.02.72.08.85.05.13.14.23.26.3.12.07.3.11.52.11.17,0,.4-.02.68-.06h0Z" style="fill:#646363; fill-rule:evenodd;"/><path d="m113.39,28.84c-.56.23-1.4.42-2.52.58-.63.09-1.08.19-1.34.3-.27.11-.47.28-.61.5-.14.22-.22.46-.22.72,0,.41.16.75.47,1.02.31.27.77.41,1.36.41s1.12-.13,1.59-.39c.46-.26.8-.61,1.01-1.06.17-.35.25-.86.25-1.53v-.56h.01Zm.12,3.41c-.57.49-1.12.83-1.65,1.03-.52.2-1.09.3-1.69.3-1,0-1.77-.24-2.31-.73-.53-.49-.8-1.11-.8-1.86,0-.44.1-.85.3-1.21.21-.37.47-.66.8-.88.33-.22.7-.39,1.11-.5.3-.08.76-.16,1.37-.23,1.24-.15,2.15-.33,2.74-.53.01-.21.01-.34.01-.4,0-.62-.15-1.06-.44-1.32-.39-.35-.97-.52-1.75-.52-.73,0-1.26.13-1.61.38-.34.25-.6.7-.76,1.35l-1.51-.21c.14-.64.37-1.17.68-1.56.31-.4.77-.7,1.36-.91.6-.21,1.28-.32,2.07-.32s1.4.09,1.89.27c.48.18.84.41,1.07.69.23.28.39.63.48,1.05.05.26.08.73.08,1.41v2.04c0,1.42.03,2.32.09,2.71.06.38.19.74.38,1.09h-1.61c-.15-.32-.25-.7-.3-1.14h0Z" style="fill:#646363; fill-rule:evenodd;"/><path d="m117.32,33.38v-9.07h1.38v1.28c.28-.44.66-.8,1.13-1.07.48-.27,1.01-.4,1.61-.4.68,0,1.23.14,1.65.42.43.28.74.67.91,1.17.72-1.06,1.66-1.58,2.82-1.58.9,0,1.59.25,2.08.75.49.5.73,1.27.73,2.3v6.22h-1.54v-5.71c0-.61-.05-1.06-.15-1.33-.1-.27-.28-.49-.55-.65-.26-.17-.57-.25-.92-.25-.64,0-1.17.21-1.59.64-.43.42-.64,1.1-.64,2.04v5.26h-1.54v-5.89c0-.68-.12-1.19-.37-1.54-.25-.34-.66-.51-1.23-.51-.43,0-.83.12-1.2.34-.36.23-.63.56-.8,1-.16.44-.24,1.07-.24,1.89v4.7h-1.54Z" style="fill:#646363; fill-rule:evenodd;"/><path d="m131.9,33.38v-9.07h1.54v9.07h-1.54Zm0-10.77v-1.75h1.54v1.75h-1.54Z" style="fill:#646363; fill-rule:evenodd;"/><path d="m136.95,27.98h5.05c-.06-.76-.26-1.33-.58-1.72-.48-.59-1.12-.89-1.9-.89-.7,0-1.29.24-1.77.71-.48.47-.75,1.1-.8,1.89h0Zm5.04,2.47l1.59.21c-.25.93-.72,1.64-1.39,2.15-.68.51-1.54.76-2.59.76-1.32,0-2.37-.41-3.15-1.22-.77-.81-1.16-1.96-1.16-3.43s.39-2.7,1.17-3.54c.79-.84,1.81-1.26,3.06-1.26s2.19.41,2.96,1.24c.77.82,1.15,1.98,1.15,3.48,0,.09,0,.23-.01.41h-6.76c.06.99.34,1.76.85,2.28.5.53,1.13.79,1.89.79.56,0,1.04-.15,1.44-.45.4-.3.71-.77.95-1.42h0Z" style="fill:#646363; fill-rule:evenodd;"/><path d="m145.53,33.38v-9.07h1.38v1.29c.67-.99,1.63-1.48,2.89-1.48.54,0,1.04.1,1.5.29.46.2.8.45,1.03.77.23.32.39.7.48,1.14.05.28.08.78.08,1.49v5.57h-1.54v-5.51c0-.62-.06-1.09-.18-1.4-.11-.31-.33-.56-.63-.74-.3-.18-.66-.28-1.07-.28-.65,0-1.21.21-1.69.62-.47.42-.71,1.2-.71,2.36v4.95h-1.54Z" style="fill:#646363; fill-rule:evenodd;"/><path d="m158.61,32.01l.21,1.36c-.44.09-.82.14-1.16.14-.56,0-.99-.09-1.3-.27-.3-.18-.52-.41-.64-.7-.13-.29-.19-.89-.19-1.82v-5.23h-1.14v-1.19h1.14v-2.25l1.54-.92v3.17h1.54v1.19h-1.54v5.31c0,.44.02.72.08.85.05.13.14.23.26.3.12.07.3.11.52.11.17,0,.4-.02.68-.06h0Z" style="fill:#646363; fill-rule:evenodd;"/><path d="m161.11,28.85c0,1.16.25,2.03.76,2.6.51.57,1.15.86,1.92.86s1.4-.29,1.91-.87c.51-.58.76-1.46.76-2.65,0-1.12-.25-1.97-.77-2.54-.5-.58-1.14-.87-1.9-.87s-1.41.29-1.92.86c-.51.57-.76,1.44-.76,2.6h0Zm-1.57,0c0-1.68.46-2.92,1.4-3.72.78-.67,1.73-1.01,2.85-1.01,1.25,0,2.27.41,3.06,1.22.79.81,1.19,1.94,1.19,3.38,0,1.17-.18,2.08-.53,2.75-.35.67-.86,1.19-1.53,1.55-.67.37-1.4.55-2.19.55-1.27,0-2.3-.4-3.08-1.22-.78-.81-1.17-1.98-1.17-3.51h0Z" style="fill:#646363; fill-rule:evenodd;"/><path d="m62.52,50.22c0,.86.18,1.5.54,1.92.37.42.79.64,1.29.64s.92-.2,1.27-.61c.34-.4.52-1.02.52-1.85,0-.91-.18-1.59-.53-2.01-.36-.43-.79-.64-1.31-.64s-.93.2-1.27.62c-.34.41-.51,1.06-.51,1.94h0Zm3.59,3.35v-.85c-.42.66-1.05.99-1.87.99-.54,0-1.03-.15-1.47-.44-.45-.29-.8-.71-1.05-1.23-.24-.52-.37-1.13-.37-1.82s.12-1.27.34-1.82c.22-.54.56-.96,1-1.25.45-.29.95-.43,1.5-.43.4,0,.76.08,1.08.26.31.17.57.39.76.67v-3.33h1.14v9.25h-1.06Z" style="fill:#646363; fill-rule:evenodd;"/><path d="m69.83,49.57h3.74c-.05-.56-.2-.99-.43-1.27-.36-.44-.83-.66-1.41-.66-.52,0-.95.17-1.31.53-.35.35-.55.81-.59,1.4h0Zm3.72,1.82l1.18.15c-.18.68-.53,1.21-1.03,1.59-.49.38-1.13.57-1.91.57-.98,0-1.75-.3-2.33-.9-.57-.6-.86-1.45-.86-2.53s.29-2,.87-2.62c.58-.62,1.33-.93,2.26-.93s1.62.3,2.19.91c.57.61.85,1.46.85,2.57,0,.07,0,.17-.01.3h-4.99c.04.73.25,1.3.62,1.69.38.39.84.59,1.4.59.42,0,.77-.11,1.06-.33.3-.22.53-.57.7-1.05h0Z" style="fill:#646363; fill-rule:evenodd;"/><polygon points="80.46 54.11 80.46 40.02 84.74 40.02 87.27 49.63 89.76 40.02 94.05 40.02 94.05 54.11 91.41 54.11 91.4 43.02 88.62 54.11 85.88 54.11 83.11 43.02 83.1 54.11 80.46 54.11 80.46 54.11" style="fill:#7bc94c; fill-rule:evenodd;"/><path d="m102.4,49.23c-.34.12-.89.25-1.64.41-.75.16-1.24.32-1.47.47-.35.25-.53.57-.53.95s.14.7.43.98c.28.27.64.41,1.07.41.49,0,.95-.16,1.4-.48.32-.24.54-.54.64-.89.07-.23.1-.67.1-1.32v-.54h0Zm-3.62-2.18l-2.44-.43c.28-1,.75-1.73,1.42-2.21.68-.48,1.68-.72,3-.72,1.21,0,2.11.14,2.7.43.59.29,1,.65,1.24,1.09.24.44.36,1.24.36,2.42l-.04,3.15c0,.9.04,1.56.13,1.98.09.42.25.88.48,1.37h-2.67c-.08-.18-.16-.44-.26-.79-.05-.16-.08-.26-.1-.31-.46.45-.95.79-1.47,1.02-.53.23-1.09.34-1.68.34-1.05,0-1.87-.29-2.48-.86-.6-.57-.9-1.29-.9-2.16,0-.58.13-1.09.41-1.54.27-.45.66-.8,1.16-1.04.49-.24,1.21-.45,2.14-.63,1.26-.24,2.14-.46,2.62-.66v-.27c0-.53-.12-.9-.38-1.12-.26-.22-.74-.34-1.45-.34-.49,0-.86.1-1.13.29-.27.19-.49.53-.66,1.01h0Z" style="fill:#7bc94c; fill-rule:evenodd;"/><path d="m110.18,54.11h-2.69v-10.21h2.5v1.45c.43-.69.82-1.13,1.16-1.35.34-.21.73-.32,1.17-.32.62,0,1.21.17,1.78.51l-.83,2.36c-.46-.3-.88-.44-1.28-.44-.37,0-.69.1-.96.31-.26.21-.47.58-.62,1.13-.15.54-.23,1.68-.23,3.42v3.15h0Z" style="fill:#7bc94c; fill-rule:evenodd;"/><path d="m120.76,49.23c-.35.12-.9.25-1.65.41-.75.16-1.24.32-1.47.47-.35.25-.52.57-.52.95s.14.7.42.98c.28.27.64.41,1.07.41.49,0,.96-.16,1.4-.48.32-.24.54-.54.64-.89.07-.23.11-.67.11-1.32v-.54h0Zm-3.62-2.18l-2.45-.43c.28-1,.75-1.73,1.43-2.21.67-.48,1.67-.72,3-.72,1.2,0,2.1.14,2.69.43.59.29,1,.65,1.24,1.09.24.44.36,1.24.36,2.42l-.03,3.15c0,.9.04,1.56.12,1.98.09.42.25.88.48,1.37h-2.67c-.07-.18-.16-.44-.26-.79-.04-.16-.08-.26-.1-.31-.46.45-.95.79-1.47,1.02-.53.23-1.08.34-1.68.34-1.05,0-1.87-.29-2.48-.86-.6-.57-.9-1.29-.9-2.16,0-.58.14-1.09.41-1.54.28-.45.66-.8,1.16-1.04.5-.24,1.21-.45,2.15-.63,1.26-.24,2.13-.46,2.62-.66v-.27c0-.53-.13-.9-.39-1.12-.26-.22-.74-.34-1.45-.34-.48,0-.86.1-1.13.29-.27.19-.49.53-.65,1.01h0Z" style="fill:#7bc94c; fill-rule:evenodd;"/><path d="m134.86,46.93l-2.66.47c-.09-.53-.29-.93-.61-1.19-.32-.27-.73-.4-1.24-.4-.67,0-1.2.23-1.6.7-.41.47-.61,1.24-.61,2.33,0,1.22.21,2.07.61,2.57.41.5.96.75,1.64.75.51,0,.93-.15,1.26-.44.32-.29.55-.8.69-1.51l2.65.45c-.27,1.22-.8,2.14-1.58,2.77-.78.62-1.83.93-3.14.93-1.5,0-2.68-.47-3.57-1.42-.89-.94-1.33-2.25-1.33-3.92s.44-3,1.33-3.94c.89-.94,2.1-1.41,3.61-1.41,1.25,0,2.23.27,2.97.8.73.54,1.26,1.35,1.58,2.45h0Z" style="fill:#7bc94c; fill-rule:evenodd;"/><path d="m142.85,48.15c-.02-.78-.22-1.38-.6-1.79-.38-.41-.85-.61-1.4-.61-.59,0-1.08.22-1.46.65-.38.43-.57,1.01-.56,1.75h4.02Zm-.16,2.74l2.7.45c-.34.99-.89,1.74-1.64,2.26-.74.51-1.68.78-2.8.78-1.77,0-3.09-.58-3.94-1.74-.67-.93-1.01-2.11-1.01-3.52,0-1.7.44-3.02,1.33-3.98.88-.96,2-1.44,3.35-1.44,1.52,0,2.71.5,3.59,1.5.88,1.01,1.3,2.54,1.26,4.62h-6.75c.02.8.23,1.43.65,1.87.41.45.93.67,1.55.67.42,0,.78-.12,1.06-.35.29-.23.51-.6.65-1.11h0Z" style="fill:#7bc94c; fill-rule:evenodd;"/><path d="m156.91,54.11h-2.7v-5.2c0-1.1-.05-1.81-.17-2.14-.12-.32-.3-.57-.57-.75-.26-.18-.57-.27-.94-.27-.47,0-.9.13-1.27.39-.38.26-.63.59-.77,1.02-.14.42-.21,1.2-.21,2.34v4.62h-2.7v-10.21h2.5v1.5c.9-1.14,2.02-1.71,3.38-1.71.6,0,1.15.11,1.65.32.49.22.87.49,1.12.82.25.33.43.71.53,1.13.1.42.15,1.03.15,1.82v6.34h0Z" style="fill:#7bc94c; fill-rule:evenodd;"/><path d="m165.16,49.23c-.35.12-.9.25-1.65.41-.75.16-1.24.32-1.47.47-.35.25-.52.57-.52.95s.14.7.42.98c.28.27.64.41,1.07.41.49,0,.95-.16,1.4-.48.32-.24.54-.54.64-.89.07-.23.11-.67.11-1.32v-.54h0Zm-3.63-2.18l-2.44-.43c.28-1,.75-1.73,1.43-2.21.67-.48,1.67-.72,3-.72,1.2,0,2.1.14,2.69.43.59.29,1,.65,1.24,1.09.24.44.36,1.24.36,2.42l-.04,3.15c0,.9.05,1.56.13,1.98.09.42.25.88.48,1.37h-2.67c-.07-.18-.16-.44-.26-.79-.05-.16-.08-.26-.1-.31-.46.45-.95.79-1.47,1.02-.53.23-1.08.34-1.68.34-1.05,0-1.87-.29-2.48-.86-.6-.57-.9-1.29-.9-2.16,0-.58.14-1.09.41-1.54.28-.45.66-.8,1.16-1.04.49-.24,1.21-.45,2.14-.63,1.27-.24,2.14-.46,2.63-.66v-.27c0-.53-.13-.9-.39-1.12-.25-.22-.74-.34-1.45-.34-.49,0-.86.1-1.13.29-.27.19-.49.53-.66,1.01h0Z" style="fill:#7bc94c; fill-rule:evenodd;"/><path d="m5.68,7.92c0-3.12,1.88-5.65,4.18-5.65s4.18,2.53,4.18,5.65-1.87,5.65-4.18,5.65-4.18-2.53-4.18-5.65h0Z" style="fill:#7bc94c;"/><path d="m35.1,5.61c-.2-2.95,1.34-5.46,3.46-5.61,2.12-.15,4,2.12,4.21,5.07.2,2.95-1.34,5.46-3.46,5.61-2.12.15-4-2.12-4.21-5.07h0Z" style="fill:#7bc94c;"/><path d="m23.38,35.81c-12.41-19.78-18.55,1.72-10.69,27.28C-15.94,20.33,11.09-1.79,23.38,35.81h0Z" style="fill:#7bc94c; fill-rule:evenodd;"/><path d="m24.98,36.3c15.36-24.82,23.1,3.81,13.64,30.84,32.32-52.1-.25-74.22-13.64-30.84h0Z" style="fill:#7bc94c; fill-rule:evenodd;"/></g></svg>