<svg xmlns="http://www.w3.org/2000/svg" viewBox="0 0 344.75 63.47"><defs><style>.cls-1{fill:#1e1f1d;}.cls-2{fill:#001689;}.cls-3{fill:#fd0;}.cls-4{fill:#8cc64b;}.cls-5{fill:#010101;}</style></defs><g id="Capa_2" data-name="Capa 2"><g id="Capa_1-2" data-name="Capa 1"><path class="cls-1" d="M275.1,57.73h.77V61a3.83,3.83,0,0,1-.2,1.36,1.65,1.65,0,0,1-.72.81,2.55,2.55,0,0,1-1.35.31,2.86,2.86,0,0,1-1.33-.27,1.64,1.64,0,0,1-.75-.79,3.87,3.87,0,0,1-.21-1.42V57.73h.76V61a3,3,0,0,0,.15,1.09,1,1,0,0,0,.48.53,2.05,2.05,0,0,0,2-.18A2.12,2.12,0,0,0,275.1,61Z"/><polygon class="cls-1" points="277.33 63.38 277.33 57.73 278.12 57.73 281.16 62.17 281.16 57.73 281.9 57.73 281.9 63.38 281.12 63.38 278.07 58.94 278.07 63.38 277.33 63.38"/><rect class="cls-1" x="283.52" y="57.73" width="0.76" height="5.65"/><path class="cls-1" d="M287.88,57.38l.53-1.08h.94l-.88,1.08Zm-1.49,3.26a2.25,2.25,0,0,0,.56,1.61,1.9,1.9,0,0,0,1.42.59,1.84,1.84,0,0,0,1.42-.6,2.34,2.34,0,0,0,.57-1.68,3,3,0,0,0-.24-1.21,1.78,1.78,0,0,0-.71-.8,2,2,0,0,0-1-.28,2,2,0,0,0-1.4.55,2.36,2.36,0,0,0-.59,1.82m-.79,0a3,3,0,0,1,.77-2.2,2.65,2.65,0,0,1,2-.8,3,3,0,0,1,1.46.37,2.52,2.52,0,0,1,1,1,3.41,3.41,0,0,1,.34,1.53,3.2,3.2,0,0,1-.36,1.53,2.34,2.34,0,0,1-1,1,3,3,0,0,1-1.41.34,2.8,2.8,0,0,1-1.47-.38,2.58,2.58,0,0,1-1-1.05,3.11,3.11,0,0,1-.33-1.41"/><polygon class="cls-1" points="292.32 63.38 292.32 57.73 293.11 57.73 296.16 62.17 296.16 57.73 296.89 57.73 296.89 63.38 296.11 63.38 293.06 58.94 293.06 63.38 292.32 63.38"/><polygon class="cls-1" points="300.84 63.38 300.84 57.73 305.03 57.73 305.03 58.4 301.61 58.4 301.61 60.12 304.82 60.12 304.82 60.79 301.61 60.79 301.61 62.71 305.17 62.71 305.17 63.38 300.84 63.38"/><path class="cls-1" d="M310.23,57.73H311V61a3.83,3.83,0,0,1-.2,1.36,1.67,1.67,0,0,1-.71.81,2.59,2.59,0,0,1-1.35.31,2.85,2.85,0,0,1-1.34-.27,1.58,1.58,0,0,1-.74-.79,3.64,3.64,0,0,1-.22-1.42V57.73h.76V61a3.26,3.26,0,0,0,.14,1.09,1.05,1.05,0,0,0,.49.53,2.05,2.05,0,0,0,2-.18,2.12,2.12,0,0,0,.36-1.44Z"/><path class="cls-1" d="M313.25,60.22h1.65a2.53,2.53,0,0,0,.82-.1.9.9,0,0,0,.46-.34,1,1,0,0,0,.15-.51.85.85,0,0,0-.3-.66,1.44,1.44,0,0,0-.94-.26h-1.84Zm-.77,3.16V57.73h2.58a3.64,3.64,0,0,1,1.18.15,1.32,1.32,0,0,1,.64.53,1.64,1.64,0,0,1,.24.86,1.41,1.41,0,0,1-.4,1,2,2,0,0,1-1.23.52,2.5,2.5,0,0,1,.46.28,3.7,3.7,0,0,1,.64.75l1,1.54h-1l-.77-1.18c-.22-.34-.41-.59-.55-.78a1.81,1.81,0,0,0-.39-.37,1.06,1.06,0,0,0-.35-.15,2.17,2.17,0,0,0-.43,0h-.89v2.51Z"/><path class="cls-1" d="M319.08,60.64a2.21,2.21,0,0,0,.56,1.61,1.89,1.89,0,0,0,1.42.59,1.86,1.86,0,0,0,1.42-.6,2.37,2.37,0,0,0,.56-1.68,3,3,0,0,0-.23-1.21,1.9,1.9,0,0,0-.71-.8,2,2,0,0,0-1-.28,2,2,0,0,0-1.41.55,2.39,2.39,0,0,0-.58,1.82m-.8,0a3,3,0,0,1,.78-2.2,2.65,2.65,0,0,1,2-.8,2.92,2.92,0,0,1,1.45.37,2.46,2.46,0,0,1,1,1,3.57,3.57,0,0,1,0,3.06,2.34,2.34,0,0,1-1,1,2.83,2.83,0,0,1-1.4.35,2.72,2.72,0,0,1-1.46-.38,2.48,2.48,0,0,1-1-1.05,3,3,0,0,1-.34-1.41"/><path class="cls-1" d="M325.79,60.41h1.5a1.57,1.57,0,0,0,1-.27.92.92,0,0,0,.31-.75,1,1,0,0,0-.18-.61.81.81,0,0,0-.48-.33,3.05,3.05,0,0,0-.72-.05h-1.48Zm-.77,3V57.73h2.19a5,5,0,0,1,.88.06,1.55,1.55,0,0,1,.71.26,1.38,1.38,0,0,1,.47.54,1.65,1.65,0,0,1,.18.77,1.69,1.69,0,0,1-.48,1.22,2.28,2.28,0,0,1-1.7.5h-1.48v2.3Z"/><polygon class="cls-1" points="330.64 63.38 330.64 57.73 334.83 57.73 334.83 58.4 331.4 58.4 331.4 60.12 334.61 60.12 334.61 60.79 331.4 60.79 331.4 62.71 334.96 62.71 334.96 63.38 330.64 63.38"/><path class="cls-1" d="M337.26,61.06h2l-.62-1.56c-.18-.48-.31-.87-.4-1.18a7,7,0,0,1-.32,1.08Zm-1.68,2.32,2.23-5.65h.83L341,63.38h-.87l-.68-1.71H337l-.63,1.71Z"/><polyline class="cls-2" points="344.75 53.44 344.75 0.29 267.44 0 267.44 53.15"/><polygon class="cls-3" points="320.29 17.45 320.92 15.45 321.57 17.45 323.65 17.45 321.96 18.66 322.59 20.63 320.92 19.41 319.26 20.63 319.89 18.66 318.2 17.45 320.29 17.45"/><polygon class="cls-3" points="304.25 8.84 304.89 6.84 305.53 8.83 307.61 8.83 305.92 10.04 306.55 12.01 304.89 10.8 303.21 12.01 303.85 10.04 302.16 8.83 304.25 8.84"/><polygon class="cls-3" points="285.81 26.08 287.91 26.08 288.56 24.07 289.21 26.08 291.31 26.08 289.61 27.3 290.25 29.29 288.56 28.07 286.88 29.29 287.51 27.3 285.81 26.08"/><polygon class="cls-3" points="292.73 37.91 291.06 36.69 289.39 37.91 290.03 35.93 288.33 34.72 290.42 34.72 291.06 32.73 291.7 34.72 293.78 34.72 292.09 35.93 292.73 37.91"/><polygon class="cls-3" points="291.75 18.51 292.41 20.52 290.7 19.28 289 20.52 289.65 18.51 287.92 17.27 290.05 17.27 290.7 15.23 291.36 17.27 293.48 17.27 291.75 18.51"/><polygon class="cls-3" points="296.5 10.8 297.15 8.77 297.8 10.8 299.93 10.8 298.2 12.05 298.86 14.06 297.15 12.81 295.45 14.06 296.09 12.05 294.37 10.8 296.5 10.8"/><polygon class="cls-3" points="299.05 44.23 297.38 43.01 295.71 44.23 296.35 42.26 294.65 41.05 296.74 41.05 297.38 39.06 298.02 41.05 300.11 41.05 298.42 42.26 299.05 44.23"/><polygon class="cls-3" points="307.66 46.52 305.99 45.3 304.32 46.52 304.95 44.55 303.27 43.34 305.35 43.34 305.99 41.35 306.63 43.34 308.72 43.34 307.02 44.55 307.66 46.52"/><polygon class="cls-3" points="316.27 44.23 314.6 43.01 312.95 44.23 313.57 42.26 311.88 41.05 313.97 41.05 314.6 39.06 315.24 41.05 317.32 41.05 315.63 42.26 316.27 44.23"/><polygon class="cls-3" points="315.66 12.37 316.3 14.33 314.63 13.11 312.97 14.33 313.59 12.37 311.9 11.15 313.99 11.15 314.63 9.15 315.27 11.15 317.36 11.15 315.66 12.37"/><polygon class="cls-3" points="322.6 37.91 320.93 36.69 319.26 37.91 319.89 35.93 318.2 34.72 320.29 34.72 320.93 32.73 321.57 34.72 323.65 34.72 321.96 35.93 322.6 37.91"/><polygon class="cls-3" points="324.88 29.24 323.22 28.02 321.55 29.24 322.18 27.28 320.5 26.06 322.58 26.07 323.22 24.07 323.85 26.06 325.94 26.06 324.25 27.28 324.88 29.24"/><path class="cls-4" d="M4.91,38.54a1.3,1.3,0,0,1-1.2,1c-.57,0-.59-.19-.59-.47,0-1.84-.38-4.82,1.52-4.82.68,0,.17.51.17,2.2,0,.8.1,1.84.1,2.1m-3.1,0a1.29,1.29,0,0,1-1.19,1c-.57,0-.59-.19-.59-.47,0-1.84-.38-4.82,1.52-4.82.68,0,.17.51.17,2.2,0,.8.09,1.84.09,2.1"/><path class="cls-4" d="M16.64,44.75a15.55,15.55,0,0,0,1.14,6.67c0,.14-.47.33-.89.33-1.74,0-2.65-2.51-3.05-4.71a16.15,16.15,0,0,1-3.91,5.73l0-.17c0,.36-.11.49-.62.51C4.35,53.23,6.8,36.3,6.76,35.05c0-.56,0-.91,1.18-.93A2.53,2.53,0,0,1,10.23,36c0,.55-1,8.65-.94,12.8A12.82,12.82,0,0,0,9.78,52a17.38,17.38,0,0,0,3.81-6.73,9.86,9.86,0,0,1,0-1c0-5,.89-8.84,1.77-8.84.53,0,2.71,0,2.71.71a35.48,35.48,0,0,0-1.39,8.63"/><path class="cls-4" d="M27.17,48.1a10.14,10.14,0,0,0,.36,3.25c0,.55-2.86.15-2.86-3.06a38,38,0,0,1,.66-6.09c-.83,2.11-2.27,7.61-3,8.69a.2.2,0,0,1-.15.19h-.05a.73.73,0,0,1-.23,0c-2.77,0-2.51-6.45-2.51-6.74s-.2-.2-.2-.54,2.78-.53,2.78.7c0,.39-.07,2.44-.07,3.07A10,10,0,0,0,22,48.92c.73-2.41,2.35-7.38,3.72-8.16a.69.69,0,0,1,.15-.07.78.78,0,0,1,.21,0,2.23,2.23,0,0,1,.36,0,.94.94,0,0,1,.53.09c.61.17,1.2.53,1.2,1,0,.91-1,4.91-1,6.35"/><path class="cls-4" d="M40.48,44.35c-.09.44-1.95,7-3.56,7.53a.59.59,0,0,1-.3.06c-1.79,0-2.23-3.7-2.36-3.7s-.87,2.88-2.37,2.88-2.71-1-2.71-3.64,1.37-6.55,4.17-6.55c2,0,3.34,0,3.34,2.77,0,.27-.68.5-.68.08s-.13-2-.84-2c-1.85,0-3.51,3.37-3.51,6.86,0,.7.08,1.84.65,1.84s1.76-4,1.76-4.95c0-.38,0-1.06,1.14-1.06s1.63.53,1.63.93v.3c.06,1.29-.05,4.93.57,4.93.4,0,2.49-6,2.62-6.41s.55-.38.45.1"/><path class="cls-4" d="M56.56,51.2c-2.48,0-2.44-5.16-2.44-5.16S52.6,50.85,52,50.85a2,2,0,0,1-2.18-2c0-1.7,1-7.4.37-7.4-1.1,0-1.91,7-2.52,9.16.13.52.15.69-.32.69-2.62,0-2.24-5.26-2.24-7.23,0-.28-.23-.28-.23-.57,0-.57,2.68-.24,2.68.86s-.21,2.39-.21,3.75c0,.29,0,.53,0,.74.4-2.37,1.55-8.42,3.2-8.42,3.27,0,1.54,7.66,1.77,7.66s1.5-4.63,2.46-4.63,2.07.25,2.07,1.27c0,.63-.24,1.58-.24,2.83,0,2.75.75,3.61,0,3.61"/><path class="cls-4" d="M69.81,44.35c-.1.44-2,7-3.57,7.53a.59.59,0,0,1-.3.06c-1.79,0-2.22-3.7-2.36-3.7s-.87,2.88-2.37,2.88-2.71-1-2.71-3.64,1.36-6.55,4.17-6.55c2,0,3.34,0,3.34,2.77,0,.27-.68.5-.68.08s-.14-2-.84-2c-1.86,0-3.51,3.37-3.51,6.86,0,.7.08,1.84.65,1.84s1.76-4,1.76-4.95c0-.38,0-1.06,1.14-1.06s1.63.53,1.63.93v.3c.06,1.29,0,4.93.57,4.93.4,0,2.49-6,2.62-6.41s.55-.38.46.1"/><path class="cls-4" d="M76.29,48.1a10.14,10.14,0,0,0,.36,3.25c0,.55-2.87.15-2.87-3.06a36.84,36.84,0,0,1,.67-6.09c-.84,2.11-2.28,7.61-3,8.69a.21.21,0,0,1-.15.19h0a.73.73,0,0,1-.23,0c-2.77,0-2.51-6.45-2.51-6.74s-.2-.2-.2-.54,2.78-.53,2.78.7c0,.39-.07,2.44-.07,3.07a8.51,8.51,0,0,0,.09,1.31c.72-2.41,2.35-7.38,3.72-8.16a.52.52,0,0,1,.15-.07.78.78,0,0,1,.21,0,2.3,2.3,0,0,1,.36,0,1,1,0,0,1,.53.09c.61.17,1.2.53,1.2,1,0,.91-1,4.91-1,6.35"/><path class="cls-4" d="M80.94,45.18c2.4,1,2.78-3.16,1.82-3.16s-1.63,1.51-1.82,3.16m5.76.36c-.13.38-1.23,5-4.21,5a4.32,4.32,0,0,1-4.21-4.27,8.33,8.33,0,0,1,2-5.42,3.77,3.77,0,0,1,3.19-.29,2.41,2.41,0,0,1,1,2.2c0,2-.95,3-2.18,3a5.62,5.62,0,0,1-1.38-.25c-.16,1.88,1,3.79,2,3.79,2.4,0,3.26-3.68,3.37-4s.52-.23.38.17"/><path class="cls-4" d="M93.47,41.84c0,1.58-.4,3.1-1.34,3.1s-1.68-.38-1.68-.8.33-2,.33-2-2.2,4.38-2.35,7.08c.2,1.38.49,1.74.49,2.06,0,.52-3.11,1.46-3.11-5.86,0-1.93.25-4.76.89-4.76,1.27,0,1.86.67,1.86,1.46s-.38,1.73-.38,3.17c0,.7,0,1.31.06,1.84.49-2.49,2.08-6.75,3-6.75,1,0,2.27-.06,2.27,1.51"/><path class="cls-4" d="M105.36,44.35c-.09.44-2,7-3.56,7.53a.6.6,0,0,1-.31.06c-1.78,0-2.21-3.7-2.35-3.7s-.87,2.88-2.37,2.88-2.71-1-2.71-3.64,1.36-6.55,4.17-6.55c2,0,3.34,0,3.34,2.77,0,.27-.68.5-.68.08s-.14-2-.84-2c-1.86,0-3.51,3.37-3.51,6.86,0,.7.08,1.84.65,1.84s1.76-4,1.76-4.95c0-.38,0-1.06,1.14-1.06s1.63.53,1.63.93v.3c.06,1.29,0,4.93.57,4.93.4,0,2.48-6,2.62-6.41s.55-.38.45.1"/><path class="cls-4" d="M115.91,44c-.31,0-.61,0-.61-.23,0-.42.44-2-.26-2-1.41,0-2.57,3.35-2.57,6.84,0,.7.4,1.84,1,1.84s2.37-4,2.37-4.95c0-.4,0-.93.1-1.55m2.26,1.42c0,7.28,1.28,7.49.43,7.49-2.45,0-2.82-4-3-4s-1.12,2.26-2.62,2.26-3-1-3-3.64,1.37-6.57,4.17-6.57c1,0,1.69,0,2.07.44.38-2.85.89-5.86.89-6s0-.45.38-.45,2,.57,2,1.25-1.38,5-1.38,9.22"/><path class="cls-4" d="M123.08,45.18c2.4,1,2.78-3.16,1.82-3.16s-1.63,1.51-1.82,3.16m5.76.36c-.13.38-1.23,5-4.21,5a4.33,4.33,0,0,1-4.21-4.27,8.33,8.33,0,0,1,2-5.42,3.77,3.77,0,0,1,3.19-.29,2.41,2.41,0,0,1,1,2.2c0,2-.94,3-2.18,3a5.62,5.62,0,0,1-1.38-.25c-.15,1.88,1,3.79,2,3.79,2.41,0,3.26-3.68,3.37-4s.51-.23.38.17"/><path class="cls-4" d="M141.64,54.51c0,.69-2.86.74-2.86-2s.61-6.69.61-7.62a1.3,1.3,0,0,0-.74-1.21,55.7,55.7,0,0,0-1.16,7,.33.33,0,0,1-.15.29c0,.19-.19.25-.8.25-4.32,0-1.59-13.38-1.59-14.27,0-.28-.25-1,.53-1,.53,0,2,.26,2,1.14s-1.17,6.14-1.17,10.15a6.53,6.53,0,0,0,.34,2.21c.35-2,1.49-6.43,2.06-6.43s2.83.46,2.83,2-.34,5-.34,6.78a7.07,7.07,0,0,0,.41,2.78"/><path class="cls-4" d="M154.47,44.35c-.1.44-2,7-3.57,7.53a.6.6,0,0,1-.31.06c-1.78,0-2.22-3.7-2.35-3.7s-.87,2.88-2.37,2.88-2.71-1-2.71-3.64,1.37-6.55,4.17-6.55c2,0,3.34,0,3.34,2.77,0,.27-.68.5-.68.08s-.13-2-.84-2c-1.86,0-3.5,3.37-3.5,6.86,0,.7.07,1.84.64,1.84s1.76-4,1.76-4.95c0-.38,0-1.06,1.14-1.06s1.64.53,1.64.93v.3c0,1.29-.06,4.93.56,4.93.4,0,2.49-6,2.62-6.41s.55-.38.46.1"/><path class="cls-4" d="M153.15,46a7.05,7.05,0,0,1,1.64-4.48,2.41,2.41,0,0,1,2.54-.3c.39.4,1.23,2.56.64,2.56s-.79-1.67-1.13-1.67c-1.28,0-1.83,7.59-.08,7.59,2.08,0,2.75-3.55,3-3.91s.77-.42.57,0-1.29,5.33-4,5.33c-1.89,0-3.11-2.54-3.11-5.12"/><path class="cls-4" d="M162.71,45.18c2.41,1,2.79-3.16,1.83-3.16s-1.64,1.51-1.83,3.16m5.77.36c-.13.38-1.23,5-4.21,5a4.32,4.32,0,0,1-4.21-4.27,8.33,8.33,0,0,1,2-5.42,3.77,3.77,0,0,1,3.19-.29,2.41,2.41,0,0,1,1,2.2c0,2-1,3-2.18,3a5.79,5.79,0,0,1-1.39-.25c-.15,1.88,1,3.79,2.05,3.79,2.41,0,3.27-3.68,3.38-4s.51-.23.38.17"/><path class="cls-4" d="M175.25,41.84c0,1.58-.4,3.1-1.34,3.1s-1.68-.38-1.68-.8.33-2,.33-2-2.2,4.38-2.35,7.08c.2,1.38.49,1.74.49,2.06,0,.52-3.11,1.46-3.11-5.86,0-1.93.24-4.76.89-4.76,1.27,0,1.86.67,1.86,1.46S170,43.8,170,45.24c0,.7,0,1.31.06,1.84.49-2.49,2.08-6.75,2.95-6.75,1.05,0,2.28-.06,2.28,1.51"/><path class="cls-4" d="M192.28,49.05c0,1.78,1.56,2.36.45,2.36-.85,0-1.93-.82-2.35-2.49-1.42,1.48-3.94,3.51-5.33,3.51a2,2,0,0,1-1.74-.78,3,3,0,0,1-1.86-2.5c0-2,1.18-4.2,2.67-6.07-.59-.1-1.93-.57-1.93-3.11,0-2.91,3.74-7.1,6.26-7.1a2.27,2.27,0,0,1,1.4.57c.23-.93,1.16-3,1.5-3a2,2,0,0,1,1.33,1.48c0,.57-1.44,2.43-1.44,3.42,0,.3.11.45-.19.45a1.43,1.43,0,0,1-1.12-1.08,1.21,1.21,0,0,1-.42.08c-.78,0-5.75,3.68-5.75,6.54a2.41,2.41,0,0,0,.1.7c.72.14,1.95-.83,1.95-.83,1.56-1.48,3.12-2.49,4-2.49a2.09,2.09,0,0,1,1.65,1.66c0,.62-8.12,5.17-8.12,9.76a1.82,1.82,0,0,0,.3,1l.13,0c2,0,6-4.85,6.7-5.37a5,5,0,0,1,1.23-2.5c.91,0,2.09.89,2.09,1.52s-1.52,2.54-1.52,4.3"/><path class="cls-4" d="M201.48,51c-1.22,0-2.6-.83-2.6-3,0-.28,0-.59,0-.93l-1.44,3.62a1.71,1.71,0,0,1,.15.53c0,.52-2.84.1-2.84-3.26,0-2.06.47-5.35.47-6,0-.46-.53-1,.3-1,1,0,2.22.57,2.22,1.26A39.68,39.68,0,0,0,197,47.8a9.11,9.11,0,0,0,.21,2.26c.38-.88,1.25-3,1.72-4.5,0-.7.08-1.31.08-1.52s.08-.83.53-.83,2.22.17,2.22,1.1a23.74,23.74,0,0,0-.3,3.83c0,2.2.72,2.81,0,2.81"/><path class="cls-4" d="M210.71,41.84c0,1.58-.39,3.1-1.34,3.1s-1.67-.38-1.67-.8.32-2,.32-2-2.2,4.38-2.35,7.08c.21,1.38.49,1.74.49,2.06,0,.52-3.11,1.46-3.11-5.86,0-1.93.25-4.76.89-4.76,1.27,0,1.86.67,1.86,1.46s-.38,1.73-.38,3.17c0,.7,0,1.31.06,1.84.49-2.49,2.09-6.75,3-6.75,1,0,2.27-.06,2.27,1.51"/><path class="cls-4" d="M215.44,42.2c-.61,0-.37,2-1.05,2.6,0,2.3-.51,5.39.67,5.39s2.41-8,.38-8M217.56,45c0,2.91-1,6.21-3.45,6.21-2.24,0-2.77-2.55-2.77-4.46s.34-4,1.73-4.29a2.31,2.31,0,0,1,2.5-1.4c1.1,0,2,1.06,2,3.94"/><path class="cls-4" d="M224.05,51.1c-1.1,0-2.17-.7-1.1-.7,2.35,0,2-8.56,1.36-8.56-1.19,0-2.41,4.93-2.81,6.74,0,1-.05,2-.05,3,0,4.89,1.44,5.93.49,5.93-3.87,0-3.09-16.86-1.71-16.86.72,0,1.69,0,1.69.78,0,.42-.13,2-.26,4.06a13.67,13.67,0,0,1,1.51-4.29c.63-.62,2.51-.27,2.75-.09,2.41,1.61,2.3,10-1.87,10"/><path class="cls-4" d="M240.15,44.35c-.1.44-2,7-3.57,7.53a.56.56,0,0,1-.3.06c-1.79,0-2.22-3.7-2.35-3.7s-.88,2.88-2.37,2.88-2.72-1-2.72-3.64,1.37-6.55,4.18-6.55c1.95,0,3.34,0,3.34,2.77,0,.27-.69.5-.69.08s-.13-2-.83-2c-1.86,0-3.51,3.37-3.51,6.86,0,.7.07,1.84.64,1.84s1.77-4,1.77-4.95c0-.38,0-1.06,1.14-1.06s1.63.53,1.63.93v.3c.05,1.29-.06,4.93.57,4.93.4,0,2.48-6,2.61-6.41s.56-.38.46.1"/><path class="cls-4" d="M242.88,35.36a1.3,1.3,0,0,1,1.19-1c.57,0,.59.19.59.48,0,1.83.38,4.81-1.51,4.81-.69,0-.18-.51-.18-2.2,0-.79-.09-1.84-.09-2.1m-3.09,0a1.29,1.29,0,0,1,1.19-1c.57,0,.59.19.59.48,0,1.83.38,4.81-1.52,4.81-.68,0-.17-.51-.17-2.2,0-.79-.09-1.84-.09-2.1"/><polygon class="cls-5" points="3.45 28.41 2.64 28.41 2.64 20.99 7.26 20.99 7.26 21.75 3.45 21.75 3.45 24.25 7.03 24.25 7.03 25.01 3.45 25.01 3.45 28.41"/><path class="cls-5" d="M12.22,27.23a2,2,0,0,0,.51-1.42,2,2,0,0,0-.51-1.4,1.74,1.74,0,0,0-2.59,0,2,2,0,0,0-.51,1.4,2,2,0,0,0,.51,1.42,1.78,1.78,0,0,0,2.59,0m-3.17.51a2.87,2.87,0,0,1,0-3.85,2.57,2.57,0,0,1,3.73,0,2.67,2.67,0,0,1,.77,1.92,2.71,2.71,0,0,1-.76,1.93,2.47,2.47,0,0,1-1.87.78,2.5,2.5,0,0,1-1.87-.78"/><path class="cls-5" d="M16,23.22v.63a2.14,2.14,0,0,1,1.64-.76c1.32,0,2.06.83,2.06,2.3v3h-.79V25.33c0-1-.49-1.51-1.33-1.51-1,0-1.56.78-1.56,2v2.57H15.2V23.22Z"/><path class="cls-5" d="M22.07,25.81a2.18,2.18,0,0,0,.45,1.42,1.64,1.64,0,0,0,2.47,0,2.37,2.37,0,0,0,0-2.83,1.62,1.62,0,0,0-2.47,0,2.17,2.17,0,0,0-.45,1.41m3.36-1.9V21h.78v7.43h-.75V27.7a2.26,2.26,0,0,1-1.78.82A2.18,2.18,0,0,1,22,27.74a3.06,3.06,0,0,1,0-3.85,2.16,2.16,0,0,1,1.73-.8,2.23,2.23,0,0,1,1.75.82"/><path class="cls-5" d="M31.78,27.23a2.09,2.09,0,0,0,.51-1.42,2,2,0,0,0-.51-1.4,1.75,1.75,0,0,0-2.6,0,2,2,0,0,0-.5,1.4,2,2,0,0,0,.5,1.42,1.79,1.79,0,0,0,2.6,0m-3.17.51a2.87,2.87,0,0,1,0-3.85,2.57,2.57,0,0,1,3.73,0,2.66,2.66,0,0,1,.76,1.92,2.7,2.7,0,0,1-.75,1.93,2.63,2.63,0,0,1-3.74,0"/><polygon class="cls-5" points="38.23 28.41 38.23 20.99 43.09 20.99 43.09 21.75 39.03 21.75 39.03 24.25 42.97 24.25 42.97 25.01 39.03 25.01 39.03 27.65 43.09 27.65 43.09 28.41 38.23 28.41"/><path class="cls-5" d="M48.37,28.41v-.66a2,2,0,0,1-1.64.77c-1.31,0-1.95-.76-1.95-2.28v-3h.78v3.05c0,1,.43,1.51,1.27,1.51,1,0,1.51-.73,1.51-2V23.22h.78v5.19Z"/><path class="cls-5" d="M53.83,23.91h-.18c-1.23,0-1.73.61-1.73,2.3v2.21h-.78V23.22h.76v.69a1.92,1.92,0,0,1,1.69-.76h.24Z"/><path class="cls-5" d="M58.74,27.23a2.09,2.09,0,0,0,.5-1.42,2,2,0,0,0-.5-1.4,1.75,1.75,0,0,0-2.6,0,2,2,0,0,0-.51,1.4,2.09,2.09,0,0,0,.51,1.42,1.79,1.79,0,0,0,2.6,0m-3.17.51a2.87,2.87,0,0,1,0-3.85,2.57,2.57,0,0,1,3.73,0,2.66,2.66,0,0,1,.76,1.92,2.7,2.7,0,0,1-.75,1.93,2.63,2.63,0,0,1-3.74,0"/><path class="cls-5" d="M65.86,25.81a2.12,2.12,0,0,0-.46-1.41,1.61,1.61,0,0,0-2.46,0,2.41,2.41,0,0,0,0,2.83,1.63,1.63,0,0,0,2.46,0,2.13,2.13,0,0,0,.46-1.42M62.5,30.46h-.78V23.22h.76v.71a2.24,2.24,0,0,1,1.77-.84,2.16,2.16,0,0,1,1.73.8,3.06,3.06,0,0,1,0,3.85,2.31,2.31,0,0,1-3.48,0Z"/><path class="cls-5" d="M69,25.36h3a1.5,1.5,0,0,0-1.5-1.53A1.57,1.57,0,0,0,69,25.36m3.83.7H69a1.67,1.67,0,0,0,1.74,1.73A1.83,1.83,0,0,0,72.17,27l.54.5a2.51,2.51,0,0,1-2,1,2.42,2.42,0,0,1-1.86-.75,2.72,2.72,0,0,1-.69-1.94,2.94,2.94,0,0,1,.64-1.95,2.29,2.29,0,0,1,3.06-.38,2.57,2.57,0,0,1,1,2.19Z"/><path class="cls-5" d="M78.21,27.23a2.09,2.09,0,0,0,.51-1.42,2,2,0,0,0-.51-1.4,1.75,1.75,0,0,0-2.6,0,2,2,0,0,0-.5,1.4,2,2,0,0,0,.5,1.42,1.79,1.79,0,0,0,2.6,0M75,27.74a2.87,2.87,0,0,1,0-3.85,2.57,2.57,0,0,1,3.73,0,2.66,2.66,0,0,1,.76,1.92,2.7,2.7,0,0,1-.75,1.93,2.63,2.63,0,0,1-3.74,0"/><path class="cls-5" d="M85.22,25.81a2.18,2.18,0,0,0,.45,1.42,1.64,1.64,0,0,0,2.47,0,2.37,2.37,0,0,0,0-2.83,1.62,1.62,0,0,0-2.47,0,2.17,2.17,0,0,0-.45,1.41m3.35-1.9V21h.79v7.43h-.75V27.7a2.26,2.26,0,0,1-1.78.82,2.21,2.21,0,0,1-1.74-.78,3.1,3.1,0,0,1,0-3.85,2.27,2.27,0,0,1,3.48,0"/><path class="cls-5" d="M91.85,25.36h3.06a1.51,1.51,0,0,0-1.51-1.53,1.58,1.58,0,0,0-1.55,1.53m3.84.7H91.82a1.67,1.67,0,0,0,1.75,1.73A1.83,1.83,0,0,0,95.05,27l.54.5a2.51,2.51,0,0,1-2,1,2.46,2.46,0,0,1-1.87-.75A2.76,2.76,0,0,1,91,25.84a3,3,0,0,1,.63-1.95,2.14,2.14,0,0,1,1.73-.8,2.09,2.09,0,0,1,1.33.42,2.58,2.58,0,0,1,1,2.19Z"/><path class="cls-5" d="M101.63,21.75v5.9H103a2.8,2.8,0,0,0,3.08-3c0-2.13-1.5-2.9-3.09-2.9Zm-.8,6.66V21h2a4.69,4.69,0,0,1,2.75.77,3.31,3.31,0,0,1,1.27,2.89c0,2.82-2,3.76-4,3.76Z"/><path class="cls-5" d="M109,25.36h3a1.49,1.49,0,0,0-1.5-1.53A1.56,1.56,0,0,0,109,25.36m3.83.7H109a1.67,1.67,0,0,0,1.75,1.73,1.83,1.83,0,0,0,1.48-.76l.54.5a2.51,2.51,0,0,1-2,1,2.42,2.42,0,0,1-1.86-.75,2.72,2.72,0,0,1-.69-1.94,3,3,0,0,1,.63-1.95,2.3,2.3,0,0,1,3.07-.38,2.57,2.57,0,0,1,1,2.19Z"/><path class="cls-5" d="M115.79,26.08c-1-.24-1.47-.73-1.47-1.49a1.28,1.28,0,0,1,.53-1.09,2,2,0,0,1,1.26-.41,2.49,2.49,0,0,1,1.84.84l-.53.56a1.89,1.89,0,0,0-1.36-.67c-.57,0-1,.3-1,.73s.26.65.77.77l.82.19c1,.23,1.47.72,1.47,1.46,0,.92-.76,1.56-1.94,1.56a2.67,2.67,0,0,1-2.09-1l.52-.54a1.91,1.91,0,0,0,1.56.79c.73,0,1.17-.29,1.17-.79s-.28-.62-.82-.75Z"/><path class="cls-5" d="M121.37,27.83a1.94,1.94,0,0,0,1.54-.83v-.7a4.35,4.35,0,0,0-1.38-.25c-.79,0-1.17.37-1.17.92a.89.89,0,0,0,1,.86M119.58,27c0-1,.77-1.63,1.91-1.63a5.05,5.05,0,0,1,1.42.25V25a1.17,1.17,0,0,0-1.28-1.22,1.49,1.49,0,0,0-1.36.86l-.54-.51a2.06,2.06,0,0,1,1.91-1.08,1.88,1.88,0,0,1,2.06,2v3.28h-.77v-.54a2.06,2.06,0,0,1-1.61.65A1.58,1.58,0,0,1,119.58,27"/><path class="cls-5" d="M128.34,23.91h-.18c-1.23,0-1.73.61-1.73,2.3v2.21h-.78V23.22h.76v.69a1.93,1.93,0,0,1,1.7-.76h.23Z"/><path class="cls-5" d="M132.39,23.91h-.18c-1.23,0-1.72.61-1.72,2.3v2.21h-.79V23.22h.76v.69a1.93,1.93,0,0,1,1.7-.76h.23Z"/><path class="cls-5" d="M137.3,27.23a2,2,0,0,0,.51-1.42,2,2,0,0,0-.51-1.4,1.74,1.74,0,0,0-2.59,0,2,2,0,0,0-.51,1.4,2,2,0,0,0,.51,1.42,1.78,1.78,0,0,0,2.59,0m-3.17.51a2.87,2.87,0,0,1,0-3.85,2.5,2.5,0,0,1,1.87-.8,2.46,2.46,0,0,1,1.86.8,2.67,2.67,0,0,1,.77,1.92,2.71,2.71,0,0,1-.76,1.93,2.47,2.47,0,0,1-1.87.78,2.51,2.51,0,0,1-1.87-.78"/><rect class="cls-5" x="140.28" y="20.98" width="0.78" height="7.42"/><rect class="cls-5" x="143.09" y="20.98" width="0.79" height="7.42"/><path class="cls-5" d="M149.44,27.23a2,2,0,0,0,.51-1.42,2,2,0,0,0-.51-1.4,1.75,1.75,0,0,0-2.6,0,2,2,0,0,0-.51,1.4,2,2,0,0,0,.51,1.42,1.79,1.79,0,0,0,2.6,0m-3.17.51a2.87,2.87,0,0,1,0-3.85,2.57,2.57,0,0,1,3.73,0,2.66,2.66,0,0,1,.76,1.92,2.7,2.7,0,0,1-.75,1.93,2.63,2.63,0,0,1-3.74,0"/><path class="cls-5" d="M156.69,21.75v3.18h1.9c1.1,0,1.79-.55,1.79-1.59s-.69-1.59-1.79-1.59Zm3.71,6.66-1.94-2.73h-1.77v2.73h-.8V21h2.58a2.87,2.87,0,0,1,2,.64,2.14,2.14,0,0,1,.74,1.71,2.2,2.2,0,0,1-1.8,2.24l2,2.83Z"/><path class="cls-5" d="M163.32,25.36h3.05a1.51,1.51,0,0,0-1.51-1.53,1.56,1.56,0,0,0-1.54,1.53m3.83.7h-3.87A1.67,1.67,0,0,0,165,27.79a1.83,1.83,0,0,0,1.48-.76l.54.5a2.51,2.51,0,0,1-2,1,2.42,2.42,0,0,1-1.86-.75,2.72,2.72,0,0,1-.69-1.94,2.94,2.94,0,0,1,.64-1.95,2.28,2.28,0,0,1,3-.38,2.55,2.55,0,0,1,1,2.19Z"/><path class="cls-5" d="M169.9,27a1.58,1.58,0,0,0,2.34,0,1.92,1.92,0,0,0,.46-1.33,2,2,0,0,0-.46-1.35,1.58,1.58,0,0,0-2.34,0,2,2,0,0,0-.45,1.35A1.92,1.92,0,0,0,169.9,27m-.51,1.84a1.72,1.72,0,0,0,1.58,1,1.62,1.62,0,0,0,1.71-1.81v-.54a2,2,0,0,1-1.69.78,2.17,2.17,0,0,1-1.68-.74,2.65,2.65,0,0,1-.67-1.85,2.68,2.68,0,0,1,.67-1.87,2.21,2.21,0,0,1,1.68-.74,2,2,0,0,1,1.71.8v-.67h.77V28a2.53,2.53,0,0,1-4.65,1.45Z"/><path class="cls-5" d="M175.56,23.22h.78v5.19h-.78Zm0-2.18a.6.6,0,0,1,.83,0,.56.56,0,0,1,0,.84.6.6,0,0,1-.83,0,.62.62,0,0,1,0-.84"/><path class="cls-5" d="M182,27.23a2,2,0,0,0,.5-1.42,2,2,0,0,0-.5-1.4,1.66,1.66,0,0,0-1.31-.58,1.63,1.63,0,0,0-1.29.58,2,2,0,0,0-.51,1.4,2,2,0,0,0,.51,1.42,1.68,1.68,0,0,0,1.29.56,1.71,1.71,0,0,0,1.31-.56m-3.17.51a2.87,2.87,0,0,1,0-3.85,2.57,2.57,0,0,1,3.73,0,2.71,2.71,0,0,1,.76,1.92,2.75,2.75,0,0,1-.75,1.93,2.5,2.5,0,0,1-1.88.78,2.48,2.48,0,0,1-1.86-.78"/><path class="cls-5" d="M185.74,23.22v.63a2.15,2.15,0,0,1,1.64-.76c1.33,0,2.07.83,2.07,2.3v3h-.8V25.33c0-1-.48-1.51-1.32-1.51-1,0-1.57.78-1.57,2v2.57H185V23.22Z"/><path class="cls-5" d="M192.83,27.83a1.92,1.92,0,0,0,1.54-.83v-.7a4.29,4.29,0,0,0-1.37-.25c-.8,0-1.18.37-1.18.92a.9.9,0,0,0,1,.86M191,27c0-1,.77-1.63,1.92-1.63a5,5,0,0,1,1.41.25V25a1.17,1.17,0,0,0-1.28-1.22,1.47,1.47,0,0,0-1.35.86l-.54-.51a2,2,0,0,1,1.9-1.08,1.88,1.88,0,0,1,2.06,2v3.28h-.76v-.54a2.07,2.07,0,0,1-1.61.65A1.59,1.59,0,0,1,191,27"/><rect class="cls-5" x="197.11" y="20.98" width="0.78" height="7.42"/><path class="cls-5" d="M206,30.06l-.56.52a6.69,6.69,0,0,1,0-9.85l.56.52a6,6,0,0,0-1.91,4.41,5.92,5.92,0,0,0,1.91,4.4"/><polygon class="cls-5" points="208.09 28.41 207.29 28.41 207.29 20.99 211.91 20.99 211.91 21.75 208.09 21.75 208.09 24.25 211.68 24.25 211.68 25.01 208.09 25.01 208.09 28.41"/><polygon class="cls-5" points="213.39 28.41 213.39 20.99 218.25 20.99 218.25 21.75 214.19 21.75 214.19 24.25 218.13 24.25 218.13 25.01 214.19 25.01 214.19 27.65 218.25 27.65 218.25 28.41 213.39 28.41"/><path class="cls-5" d="M221,21.75v5.9h1.31a2.79,2.79,0,0,0,3.08-3c0-2.13-1.49-2.9-3.09-2.9Zm-.81,6.66V21h2a4.69,4.69,0,0,1,2.75.77,3.31,3.31,0,0,1,1.28,2.89c0,2.82-2,3.76-4,3.76Z"/><polygon class="cls-5" points="227.78 28.41 227.78 20.99 232.64 20.99 232.64 21.75 228.58 21.75 228.58 24.25 232.52 24.25 232.52 25.01 228.58 25.01 228.58 27.65 232.64 27.65 232.64 28.41 227.78 28.41"/><path class="cls-5" d="M235.41,21.75v3.18h1.89c1.1,0,1.79-.55,1.79-1.59s-.69-1.59-1.79-1.59Zm3.7,6.66-1.93-2.73h-1.77v2.73h-.81V21h2.58a2.89,2.89,0,0,1,2,.64,2.17,2.17,0,0,1,.74,1.71,2.21,2.21,0,0,1-1.8,2.24l2,2.83Z"/><path class="cls-5" d="M241,21.25l.56-.52a6.69,6.69,0,0,1,0,9.85l-.56-.52a6,6,0,0,0,0-8.81"/></g></g></svg>