<?xml version="1.0" encoding="utf-8"?>
<!-- Generator: Adobe Illustrator 27.7.0, SVG Export Plug-In . SVG Version: 6.00 Build 0)  -->
<svg version="1.1" id="Capa_1" xmlns="http://www.w3.org/2000/svg" xmlns:xlink="http://www.w3.org/1999/xlink" x="0px" y="0px"
	 viewBox="0 0 652 283.5" style="enable-background:new 0 0 652 283.5;" xml:space="preserve">
<style type="text/css">
	.st0{clip-path:url(#SVGID_00000116234451128167147020000009169518457316758669_);}
	.st1{opacity:0.1;fill:#1F1F1D;enable-background:new    ;}
	.st2{opacity:0.12;fill:#1F1F1D;enable-background:new    ;}
	.st3{fill:#AC7E5B;}
	.st4{clip-path:url(#SVGID_00000148628286707803553740000012072283927222536868_);}
	.st5{fill:#AED2DD;}
	.st6{opacity:0.43;fill:#FFFFFF;enable-background:new    ;}
	.st7{fill:#A3D5C9;}
	.st8{fill:#7FC5B4;}
	.st9{fill:#BFBDBB;}
	.st10{fill:#CDDFDA;}
	.st11{opacity:0.5;fill:url(#SVGID_00000176760641714364473440000000492677182183750079_);enable-background:new    ;}
	.st12{fill:#B9D7D4;}
	.st13{opacity:0.5;fill:url(#SVGID_00000131326950873445131280000007020604895656922525_);enable-background:new    ;}
	.st14{opacity:0.5;fill:url(#SVGID_00000177451169956365363970000014423321636382452899_);enable-background:new    ;}
	.st15{fill:#C6D3A2;}
	.st16{opacity:0.36;fill:url(#SVGID_00000010269836323779167170000002090207957139282569_);enable-background:new    ;}
	.st17{opacity:0.36;fill:url(#SVGID_00000114770777610941582220000008462311279290416038_);enable-background:new    ;}
	.st18{fill:#B9CC83;}
	.st19{opacity:0.5;fill:url(#SVGID_00000028307273561686477840000005174303818445665723_);enable-background:new    ;}
	.st20{opacity:0.5;fill:url(#SVGID_00000118355500381524126910000002983413309238047155_);enable-background:new    ;}
	.st21{fill:#DDDDDC;}
	.st22{opacity:0.66;fill:url(#SVGID_00000152244223124506321430000002955233656527578012_);enable-background:new    ;}
	.st23{fill:#F7D269;}
	.st24{opacity:0.66;fill:url(#SVGID_00000001641656274022640730000000161151644667085468_);enable-background:new    ;}
	.st25{opacity:0.66;fill:url(#SVGID_00000008843715133999047680000004400443912668955547_);enable-background:new    ;}
	.st26{fill:#ECAAA5;}
	.st27{opacity:0.36;fill:url(#SVGID_00000141419892219252707560000005572459146148318608_);enable-background:new    ;}
	.st28{opacity:0.36;fill:url(#SVGID_00000138562131749258674690000003097858569332432524_);enable-background:new    ;}
	.st29{fill:#E2C9C7;}
	.st30{opacity:0.36;fill:url(#SVGID_00000133498723486987183610000002473029860465017778_);enable-background:new    ;}
	.st31{opacity:0.36;fill:url(#SVGID_00000083057428987976207340000017521291952584631999_);enable-background:new    ;}
	.st32{fill:url(#SVGID_00000100358457904297611760000002321041347523846325_);}
	.st33{fill:#F3DDAA;}
	.st34{opacity:0.66;fill:url(#SVGID_00000180352754035238211770000000524539141425230985_);enable-background:new    ;}
	.st35{opacity:0.66;fill:url(#SVGID_00000129894957346778219820000000957479172101028480_);enable-background:new    ;}
	.st36{fill:#EFBB2A;}
	.st37{fill:none;stroke:#FFFFFD;stroke-width:0.21;stroke-miterlimit:10;}
	.st38{fill:none;stroke:#FFFFFD;stroke-width:0.27;stroke-miterlimit:10;}
	.st39{fill:#ADBA6A;}
	.st40{fill:#ED9B98;}
	.st41{fill:#FBFBFB;}
	.st42{fill:#FFFFFF;}
	.st43{opacity:0.22;fill:#EBE336;enable-background:new    ;}
	.st44{fill:#EF9E4F;}
	.st45{opacity:0.36;fill:url(#SVGID_00000140711111081516067640000009025131528070642618_);enable-background:new    ;}
	.st46{opacity:0.36;fill:url(#SVGID_00000120533367216082622860000008120720480638273922_);enable-background:new    ;}
	.st47{fill:#ECAD79;}
	.st48{fill:#DF8647;}
	.st49{fill:url(#SVGID_00000057136362333086838160000003246312510736028324_);}
	.st50{fill:#D8D8D7;}
	.st51{fill:none;stroke:#FFFFFF;stroke-width:1.65;stroke-miterlimit:10;}
	.st52{fill:url(#SVGID_00000065039143158447550210000017196124409230662016_);}
	.st53{fill:url(#SVGID_00000099655518391535648430000001829423723722267780_);}
	.st54{opacity:0.22;fill:#FBFBFB;enable-background:new    ;}
	.st55{fill:url(#SVGID_00000010308488318774286150000002283360715847465653_);}
	.st56{fill:none;}
	.st57{fill:#3D3D3B;}
	.st58{fill:#EAE8DC;stroke:#3D3D3B;stroke-width:0.35;stroke-linecap:round;stroke-linejoin:round;}
	.st59{fill:none;stroke:#3D3D3B;stroke-width:0.35;stroke-linecap:round;stroke-linejoin:round;}
	.st60{fill:none;stroke:#3D3D3B;stroke-width:0.29;stroke-miterlimit:10;}
	.st61{fill:none;stroke:#3D3D3B;stroke-width:0.29;stroke-linecap:round;stroke-linejoin:round;}
	.st62{fill:none;stroke:#3D3D3B;stroke-width:0.17;}
	.st63{fill:#50A1D9;}
	.st64{fill:none;stroke:#FFFFFF;stroke-width:0.14;}
	.st65{fill:none;stroke:#3D3D3B;stroke-width:0.24;stroke-linecap:round;stroke-linejoin:round;}
	.st66{fill:none;stroke:#3D3D3B;stroke-width:0.11;}
	.st67{fill:#F1EEE3;}
	.st68{fill:#F1EEE3;stroke:#3D3D3B;stroke-width:8.000000e-02;stroke-linecap:round;stroke-linejoin:round;}
	.st69{fill:#FFD324;stroke:#3D3D3B;stroke-width:8.000000e-02;stroke-linecap:round;stroke-linejoin:round;}
	.st70{fill:#FFD324;}
	.st71{fill:none;stroke:#3D3D3B;stroke-width:0.16;}
	.st72{fill:#3D3D3B;stroke:#3D3D3B;stroke-width:0.24;stroke-linecap:round;stroke-linejoin:round;}
	.st73{fill:#3D3D3B;stroke:#3D3D3B;stroke-width:4.000000e-02;}
	.st74{fill:none;stroke:#FFFFFF;stroke-width:0.11;}
	.st75{fill:none;stroke:#3D3D3B;stroke-width:8.000000e-02;}
	.st76{fill:none;stroke:#3D3D3B;stroke-width:0.2;}
	.st77{fill:#453F39;}
	.st78{fill:#88C48D;}
	.st79{fill:none;stroke:#FFFFFF;stroke-width:8.000000e-02;}
	.st80{fill:#757170;}
	.st81{fill:#88C48D;stroke:#3D3D3B;stroke-width:0.11;stroke-miterlimit:10;}
	.st82{fill:#E78AAD;stroke:#3D3D3B;stroke-width:0.19;stroke-miterlimit:10;}
	.st83{fill:#FFFFFF;stroke:#3D3D3B;stroke-width:0.19;stroke-miterlimit:10;}
	.st84{fill:none;stroke:#FFFFFF;stroke-width:0.18;stroke-linecap:round;}
	.st85{fill:#D0396D;}
	.st86{fill:none;stroke:#3D3D3B;stroke-width:0.18;}
	.st87{fill:#E78AAD;stroke:#3D3D3B;stroke-width:0.19;stroke-linecap:round;stroke-miterlimit:10;}
	.st88{opacity:0.52;fill:url(#SVGID_00000077296822162902690600000011560263877270504079_);enable-background:new    ;}
	.st89{fill:url(#SVGID_00000080180768468269628840000008046251062360650414_);}
	.st90{fill:#EAE8DC;stroke:#3D3D3B;stroke-width:0.21;stroke-miterlimit:10;}
	.st91{fill:#0C6835;}
	.st92{fill:none;stroke:#3D3D3B;stroke-width:0.44;stroke-dasharray:0.26,0.26;}
	.st93{fill:#F7A509;}
	.st94{fill:none;stroke:#FFFFFF;stroke-width:8.000000e-02;stroke-miterlimit:10;}
	.st95{fill:none;stroke:#3D3D3B;stroke-width:0.24;}
	.st96{fill:none;stroke:#FFFFFF;stroke-width:6.000000e-02;}
	.st97{fill:#FFFFFF;stroke:#3D3D3B;stroke-width:8.000000e-02;stroke-linecap:round;stroke-linejoin:round;}
	.st98{fill:#FFFFFF;stroke:#3D3D3B;stroke-width:4.000000e-02;stroke-miterlimit:10;}
	.st99{fill:#CC4A88;}
	.st100{fill:#FFFFFF;stroke:#3D3D3B;stroke-width:8.000000e-02;}
	.st101{fill:#EAE8DC;}
	.st102{fill:none;stroke:#3D3D3B;stroke-width:0.21;stroke-miterlimit:10;}
	.st103{enable-background:new    ;}
	.st104{fill:#023B96;}
</style>
<g>
	<g id="Capa_2_00000181797872331034953400000004897701762160685739_">
		<g id="Capa_1-2">
			<g>
				<g>
					<g>
						<defs>
							<rect id="SVGID_1_" y="0" width="283.5" height="283.5"/>
						</defs>
						<clipPath id="SVGID_00000047782634757006949750000006720970857496213389_">
							<use xlink:href="#SVGID_1_"  style="overflow:visible;"/>
						</clipPath>
						<g style="clip-path:url(#SVGID_00000047782634757006949750000006720970857496213389_);">
							<path class="st1" d="M134.1,11.9c-57.9,0-104.9,47-104.9,104.9c0,79.6,86.2,179.3,104.9,179.3c18,0,104.9-102.7,104.9-179.3
								C239,58.9,192,11.9,134.1,11.9z M134.1,167.9c-28.3,0-51.2-22.9-51.2-51.2s22.9-51.2,51.2-51.2s51.2,22.9,51.2,51.2v0.1
								C185.3,145.1,162.4,168,134.1,167.9L134.1,167.9L134.1,167.9z"/>
							<path class="st2" d="M195.8,171.7c0,10.3-6.7,18.7-14.9,18.7S166,182,166,171.7s2.6-40.1,14.9-40.1
								C192.5,131.5,195.8,161.3,195.8,171.7z"/>
							<rect x="186.8" y="187.4" class="st3" width="2.4" height="5.3"/>
							<g>
								<g>
									<g>
										<defs>
											<path id="SVGID_00000174595469172583523970000004770249221874150586_" d="M142.5,7.4C85.3,7.4,38.9,53.8,38.8,111.1
												c0,0,0,0,0,0.1c0,78.7,85.2,177.2,103.7,177.2c17.8,0,103.7-101.5,103.7-177.2C246.3,53.9,199.9,7.5,142.5,7.4
												C142.6,7.4,142.6,7.4,142.5,7.4z M142.5,161.8c-28,0-50.6-22.7-50.6-50.6s22.7-50.6,50.6-50.6c28,0,50.6,22.7,50.6,50.6
												C193.2,139.1,170.5,161.7,142.5,161.8C142.6,161.8,142.6,161.8,142.5,161.8z"/>
										</defs>
										<clipPath id="SVGID_00000047060704719517723560000010906864465726248618_">
											<use xlink:href="#SVGID_00000174595469172583523970000004770249221874150586_"  style="overflow:visible;"/>
										</clipPath>
										<g style="clip-path:url(#SVGID_00000047060704719517723560000010906864465726248618_);">
											<rect x="-49.7" y="-84.9" class="st5" width="546.6" height="344.8"/>
											<circle class="st6" cx="192.1" cy="144.6" r="126"/>
											<ellipse class="st7" cx="250" cy="186.3" rx="209.2" ry="29.1"/>
											<ellipse class="st8" cx="315.4" cy="202.5" rx="209.2" ry="29.1"/>
											<ellipse class="st8" cx="112.5" cy="202.5" rx="209.2" ry="29.1"/>
											<rect x="-55.8" y="193.9" class="st9" width="565.5" height="65.1"/>
											<polygon class="st10" points="56.7,97.7 -7.6,103.5 -7.6,193.9 57,193.9 											"/>
											
												<linearGradient id="SVGID_00000109746635799991553260000010256281281974359474_" gradientUnits="userSpaceOnUse" x1="-7.6" y1="135.4102" x2="2.6809" y2="135.4102" gradientTransform="matrix(1 0 0 -1 0 284.1102)">
												<stop  offset="0" style="stop-color:#80B1B1"/>
												<stop  offset="1" style="stop-color:#CDDFDA;stop-opacity:0"/>
											</linearGradient>
											
												<rect x="-7.6" y="103.5" style="opacity:0.5;fill:url(#SVGID_00000109746635799991553260000010256281281974359474_);enable-background:new    ;" width="10.3" height="90.4"/>
											<path class="st12" d="M3.5,127.2h33.9c1.1,0,2,0.9,2,2l0,0c0,1.1-0.9,2-2,2H3.5c-1.1,0-2-0.9-2-2l0,0
												C1.5,128,2.4,127.2,3.5,127.2z"/>
											<path class="st12" d="M3.5,133.7h33.9c1.1,0,2,0.9,2,2l0,0c0,1.1-0.9,2-2,2H3.5c-1.1,0-2-0.9-2-2l0,0
												C1.5,134.6,2.4,133.7,3.5,133.7z"/>
											<path class="st12" d="M3.5,139.9h33.9c1.1,0,2,0.9,2,2l0,0c0,1.1-0.9,2-2,2H3.5c-1.1,0-2-0.9-2-2l0,0
												C1.5,140.8,2.4,139.9,3.5,139.9z"/>
											<path class="st12" d="M3.5,146.2h33.9c1.1,0,2,0.9,2,2l0,0c0,1.1-0.9,2-2,2H3.5c-1.1,0-2-0.9-2-2l0,0
												C1.5,147.1,2.4,146.2,3.5,146.2z"/>
											
												<linearGradient id="SVGID_00000077310775588610108750000013140435280132253318_" gradientUnits="userSpaceOnUse" x1="175.8" y1="140.9602" x2="192.7678" y2="140.9602" gradientTransform="matrix(1 0 0 -1 0 284.1102)">
												<stop  offset="0" style="stop-color:#80B1B1"/>
												<stop  offset="1" style="stop-color:#CDDFDA;stop-opacity:0"/>
											</linearGradient>
											
												<rect x="175.8" y="92.8" style="opacity:0.5;fill:url(#SVGID_00000077310775588610108750000013140435280132253318_);enable-background:new    ;" width="17" height="100.7"/>
											
												<linearGradient id="SVGID_00000064336152683293959500000017822692807850660522_" gradientUnits="userSpaceOnUse" x1="-682.5778" y1="820.5898" x2="-672.9655" y2="820.5898" gradientTransform="matrix(-1 0 0 1 -625.7401 -671.8898)">
												<stop  offset="0" style="stop-color:#80B1B1"/>
												<stop  offset="1" style="stop-color:#CDDFDA;stop-opacity:0"/>
											</linearGradient>
											
												<rect x="47.2" y="103.5" style="opacity:0.5;fill:url(#SVGID_00000064336152683293959500000017822692807850660522_);enable-background:new    ;" width="9.6" height="90.4"/>
											<polygon class="st15" points="218,69.1 140.3,62.7 140.8,192.9 213.1,192.9 											"/>
											
												<linearGradient id="SVGID_00000019663937515382297810000013600496488732088724_" gradientUnits="userSpaceOnUse" x1="140.2835" y1="156.3102" x2="152.1525" y2="156.3102" gradientTransform="matrix(1 0 0 -1 0 284.1102)">
												<stop  offset="0" style="stop-color:#737D4A"/>
												<stop  offset="0.97" style="stop-color:#BDC88E;stop-opacity:0"/>
												<stop  offset="1" style="stop-color:#BFCD8D"/>
											</linearGradient>
											
												<polygon style="opacity:0.36;fill:url(#SVGID_00000019663937515382297810000013600496488732088724_);enable-background:new    ;" points="
												152.2,63.9 140.3,62.7 140.8,192.9 151.5,192.9 											"/>
											
												<linearGradient id="SVGID_00000039838893148334674300000000012658690854893717_" gradientUnits="userSpaceOnUse" x1="-844.1198" y1="802.3398" x2="-828.4614" y2="802.3398" gradientTransform="matrix(-1 0 0 1 -625.74 -671.8898)">
												<stop  offset="0" style="stop-color:#737D4A"/>
												<stop  offset="0.97" style="stop-color:#BDC88E;stop-opacity:0"/>
												<stop  offset="1" style="stop-color:#BFCD8D"/>
											</linearGradient>
											
												<polygon style="opacity:0.36;fill:url(#SVGID_00000039838893148334674300000000012658690854893717_);enable-background:new    ;" points="
												202.7,192.9 213.5,192.9 218.4,69.1 203.3,68 											"/>
											<path class="st18" d="M149.6,193.4v-84c0.1-2,1.7-3.5,3.7-3.5h47.4c2.1,0,3.7,1.6,3.8,3.6v83.9"/>
											<polygon class="st10" points="137.9,50.7 59.3,60.1 62.5,184.1 134.7,184.1 											"/>
											
												<linearGradient id="SVGID_00000174564790386293474170000002921332140023363721_" gradientUnits="userSpaceOnUse" x1="59.3" y1="162.6602" x2="74.2" y2="162.6602" gradientTransform="matrix(1 0 0 -1 0 284.1102)">
												<stop  offset="0" style="stop-color:#80B1B1"/>
												<stop  offset="1" style="stop-color:#CDDFDA;stop-opacity:0"/>
											</linearGradient>
											
												<polygon style="opacity:0.5;fill:url(#SVGID_00000174564790386293474170000002921332140023363721_);enable-background:new    ;" points="
												74.2,58.7 59.3,60.2 62.4,184.2 73.2,184.2 											"/>
											
												<linearGradient id="SVGID_00000182501806657890592780000002418801249413380510_" gradientUnits="userSpaceOnUse" x1="-763.7667" y1="789.2898" x2="-750.0309" y2="789.2898" gradientTransform="matrix(-1 0 0 1 -625.74 -671.8898)">
												<stop  offset="0" style="stop-color:#80B1B1"/>
												<stop  offset="1" style="stop-color:#CDDFDA;stop-opacity:0"/>
											</linearGradient>
											
												<polygon style="opacity:0.5;fill:url(#SVGID_00000182501806657890592780000002418801249413380510_);enable-background:new    ;" points="
												124.4,184.1 134.9,184.1 138,50.7 124.3,52.4 											"/>
											<rect x="-56.3" y="193" class="st21" width="566.1" height="2"/>
											
												<linearGradient id="SVGID_00000175315813856564046180000007876002292282661266_" gradientUnits="userSpaceOnUse" x1="-730.9178" y1="814.3398" x2="-720.1632" y2="814.3398" gradientTransform="matrix(-1 0 0 1 -625.74 -671.8898)">
												<stop  offset="0" style="stop-color:#C8AF9D"/>
												<stop  offset="1" style="stop-color:#F6EAC8;stop-opacity:0"/>
											</linearGradient>
											
												<rect x="94.4" y="92.1" style="opacity:0.66;fill:url(#SVGID_00000175315813856564046180000007876002292282661266_);enable-background:new    ;" width="10.8" height="100.7"/>
											<rect x="63" y="82.4" class="st23" width="39.6" height="9.7"/>
											
												<linearGradient id="SVGID_00000104677070767601161880000013920799481002065044_" gradientUnits="userSpaceOnUse" x1="-728.0759" y1="759.1398" x2="-717.3213" y2="759.1398" gradientTransform="matrix(-1 0 0 1 -625.7401 -671.8898)">
												<stop  offset="0" style="stop-color:#C8AF9D"/>
												<stop  offset="1" style="stop-color:#F6EAC8;stop-opacity:0"/>
											</linearGradient>
											
												<rect x="91.6" y="82.5" style="opacity:0.66;fill:url(#SVGID_00000104677070767601161880000013920799481002065044_);enable-background:new    ;" width="10.8" height="9.5"/>
											
												<linearGradient id="SVGID_00000075149913495527579550000001530337313967907758_" gradientUnits="userSpaceOnUse" x1="-64.4262" y1="56.4902" x2="-53.6716" y2="56.4902" gradientTransform="matrix(1 0 0 -1 127.31 143.8402)">
												<stop  offset="0" style="stop-color:#C8AF9D"/>
												<stop  offset="1" style="stop-color:#F6EAC8;stop-opacity:0"/>
											</linearGradient>
											
												<rect x="62.9" y="82.6" style="opacity:0.66;fill:url(#SVGID_00000075149913495527579550000001530337313967907758_);enable-background:new    ;" width="10.8" height="9.5"/>
											<rect x="105" y="116.4" class="st26" width="39.6" height="9.7"/>
											
												<linearGradient id="SVGID_00000010291067619081010900000016001889993731221694_" gradientUnits="userSpaceOnUse" x1="-770.147" y1="793.1398" x2="-759.3923" y2="793.1398" gradientTransform="matrix(-1 0 0 1 -625.74 -671.8898)">
												<stop  offset="0" style="stop-color:#D26E62"/>
												<stop  offset="1" style="stop-color:#E7E2DE;stop-opacity:0"/>
											</linearGradient>
											
												<rect x="133.7" y="116.5" style="opacity:0.36;fill:url(#SVGID_00000010291067619081010900000016001889993731221694_);enable-background:new    ;" width="10.8" height="9.5"/>
											
												<linearGradient id="SVGID_00000006670841009295558040000004103628156285894836_" gradientUnits="userSpaceOnUse" x1="-22.3551" y1="22.4902" x2="-11.6005" y2="22.4902" gradientTransform="matrix(1 0 0 -1 127.31 143.8402)">
												<stop  offset="0" style="stop-color:#D26E62"/>
												<stop  offset="1" style="stop-color:#E7E2DE;stop-opacity:0"/>
											</linearGradient>
											
												<rect x="105" y="116.6" style="opacity:0.36;fill:url(#SVGID_00000006670841009295558040000004103628156285894836_);enable-background:new    ;" width="10.8" height="9.5"/>
											<polygon class="st29" points="179.6,120.4 104.7,125.8 104.7,192.9 176.9,192.9 											"/>
											<path class="st26" d="M104.7,171.6h19.9c0.9,0,1.6-0.7,1.6-1.6l0,0l0,0c0-0.9-0.7-1.6-1.6-1.6h-19.9"/>
											<path class="st26" d="M104.7,175.9h19.9c0.9,0,1.6-0.7,1.6-1.6l0,0c0-0.9-0.7-1.6-1.5-1.6c0,0,0,0-0.1,0h-19.9"/>
											<path class="st26" d="M104.7,180.3h19.9c0.9,0,1.6-0.7,1.6-1.5c0,0,0,0,0-0.1l0,0c0-0.9-0.7-1.6-1.6-1.6h-19.9"/>
											
												<linearGradient id="SVGID_00000003064272781619557820000011802833337187546496_" gradientUnits="userSpaceOnUse" x1="-805.14" y1="828.3898" x2="-791.6829" y2="828.3898" gradientTransform="matrix(-1 0 0 1 -625.74 -671.8898)">
												<stop  offset="0" style="stop-color:#D26E62"/>
												<stop  offset="1" style="stop-color:#E7E2DE;stop-opacity:0"/>
											</linearGradient>
											
												<polygon style="opacity:0.36;fill:url(#SVGID_00000003064272781619557820000011802833337187546496_);enable-background:new    ;" points="
												166,192.8 176.8,192.8 179.4,120.2 165.9,121.5 											"/>
											<path class="st26" d="M167.1,159v28.2c0,2-1.6,3.6-3.6,3.6l0,0c-2,0-3.6-1.6-3.6-3.6V159c0-2,1.6-3.6,3.6-3.6l0,0
												C165.4,155.4,167.1,157,167.1,159z"/>
											<path class="st26" d="M157.1,159.1v28.2c0,2-1.6,3.6-3.6,3.6l0,0c-2,0-3.6-1.6-3.6-3.6v-28.2c0-2,1.6-3.6,3.6-3.6l0,0
												C155.5,155.4,157.1,157.1,157.1,159.1z"/>
											
												<linearGradient id="SVGID_00000008857940717694607180000016516187145572892564_" gradientUnits="userSpaceOnUse" x1="104.732" y1="124.8602" x2="115.4866" y2="124.8602" gradientTransform="matrix(1 0 0 -1 0 284.1102)">
												<stop  offset="0" style="stop-color:#D26E62"/>
												<stop  offset="1" style="stop-color:#E7E2DE;stop-opacity:0"/>
											</linearGradient>
											
												<rect x="104.7" y="125.6" style="opacity:0.36;fill:url(#SVGID_00000008857940717694607180000016516187145572892564_);enable-background:new    ;" width="10.8" height="67.3"/>
											
												<radialGradient id="SVGID_00000079451553849333976380000004413936026609808563_" cx="46.334" cy="200.3023" r="13.4015" gradientTransform="matrix(1 0 0 -1 0 284.1102)" gradientUnits="userSpaceOnUse">
												<stop  offset="0" style="stop-color:#F6EAC8"/>
												<stop  offset="0.89" style="stop-color:#F7D370"/>
												<stop  offset="1" style="stop-color:#DFB05F"/>
											</radialGradient>
											<circle style="fill:url(#SVGID_00000079451553849333976380000004413936026609808563_);" cx="50.2" cy="89.5" r="8.2"/>
											<polygon class="st33" points="105.2,92.1 31.1,87.9 32.9,192.9 105.2,192.9 											"/>
											
												<linearGradient id="SVGID_00000108295240914043409520000003357712826647254963_" gradientUnits="userSpaceOnUse" x1="31.1493" y1="143.7102" x2="44.4493" y2="143.7102" gradientTransform="matrix(1 0 0 -1 0 284.1102)">
												<stop  offset="0" style="stop-color:#C8AF9D"/>
												<stop  offset="1" style="stop-color:#F6EAC8;stop-opacity:0"/>
											</linearGradient>
											
												<polygon style="opacity:0.66;fill:url(#SVGID_00000108295240914043409520000003357712826647254963_);enable-background:new    ;" points="
												44.4,88.8 31.1,87.9 32.9,192.9 43.7,192.9 											"/>
											
												<linearGradient id="SVGID_00000166675385001387943690000001925452086310422151_" gradientUnits="userSpaceOnUse" x1="-2340.4297" y1="172.5402" x2="-2326.0813" y2="172.5402" gradientTransform="matrix(-1 0 0 -1 -2235.28 314.5902)">
												<stop  offset="0" style="stop-color:#C8AF9D"/>
												<stop  offset="1" style="stop-color:#F6EAC8;stop-opacity:0"/>
											</linearGradient>
											
												<polygon style="opacity:0.66;fill:url(#SVGID_00000166675385001387943690000001925452086310422151_);enable-background:new    ;" points="
												90.8,91.2 105.2,92.3 105.2,192.9 92.5,192.9 											"/>
											<path class="st23" d="M48.9,135.7h41.7c3,0,5.3,2.4,5.3,5.3l0,0c0,2.9-2.4,5.3-5.3,5.3H48.9c-3,0-5.3-2.4-5.3-5.3l0,0
												C43.5,138.1,45.9,135.7,48.9,135.7z"/>
											<path class="st36" d="M48.9,121.8h41.7c3,0,5.3,2.4,5.3,5.3l0,0c0,2.9-2.4,5.3-5.3,5.3H48.9c-3,0-5.3-2.4-5.3-5.3l0,0
												C43.5,124.2,45.9,121.8,48.9,121.8z"/>
											<path class="st23" d="M48.2,150.9h6.5c1.8,0,3.2,1.4,3.2,3.2v6c0,1.8-1.4,3.2-3.2,3.2h-6.5c-1.8,0-3.2-1.4-3.2-3.2v-6
												C44.9,152.4,46.4,150.9,48.2,150.9z"/>
											<path class="st37" d="M48.2,167.9h6.5c1.8,0,3.2,1.4,3.2,3.2v6c0,1.8-1.4,3.2-3.2,3.2h-6.5c-1.8,0-3.2-1.4-3.2-3.2v-6
												C44.9,169.3,46.4,167.9,48.2,167.9z"/>
											<path class="st37" d="M48.2,103.5h6.5c1.8,0,3.2,1.4,3.2,3.2v6c0,1.8-1.4,3.2-3.2,3.2h-6.5c-1.8,0-3.2-1.4-3.2-3.2v-6
												C44.9,104.9,46.4,103.5,48.2,103.5z"/>
											<path class="st37" d="M61.3,192.8v-21.1c0-1.8,1.4-3.2,3.2-3.2h8.8c1.8,0,3.2,1.4,3.2,3.2v21.1"/>
											<path class="st37" d="M129.9,192.6v-21.2c0-1.8,1.5-3.2,3.3-3.2h8.8c1.8,0,3.2,1.4,3.2,3.2v21.2"/>
											<path class="st38" d="M177.4,89.5L177.4,89.5c3.3,0,5.9,2.6,5.9,5.8l0,0c0,3.2-2.6,5.8-5.8,5.8h-0.1
												c-3.2,0-5.8-2.6-5.8-5.8l0,0C171.6,92,174.2,89.5,177.4,89.5z"/>
											<path class="st39" d="M191.6,89.5L191.6,89.5c3.3,0,5.9,2.6,5.9,5.8l0,0c0,3.2-2.6,5.8-5.8,5.8h-0.1
												c-3.2,0-5.8-2.6-5.8-5.8l0,0C185.9,92,188.4,89.5,191.6,89.5z"/>
											<path class="st37" d="M116.2,150.8h6.5c1.8,0,3.2,1.4,3.2,3.2v6c0,1.8-1.4,3.2-3.2,3.2h-6.5c-1.8,0-3.2-1.4-3.2-3.2v-6
												C112.9,152.3,114.4,150.8,116.2,150.8z"/>
											<path class="st40" d="M116.2,135.2h6.5c1.8,0,3.2,1.4,3.2,3.2v6c0,1.8-1.4,3.2-3.2,3.2h-6.5c-1.8,0-3.2-1.4-3.2-3.2v-6
												C112.9,136.7,114.4,135.2,116.2,135.2z"/>
											<path class="st39" d="M191.8,111.1L191.8,111.1c3.1,0,5.6,2.5,5.6,5.6v42.2c0,3.1-2.5,5.6-5.6,5.6l0,0
												c-3.1,0-5.6-2.5-5.6-5.6v-42.2C186.2,113.6,188.7,111.1,191.8,111.1z"/>
											<path class="st41" d="M26.9,193h0.8v-36.4c0-3.1-2.5-5.7-5.7-5.7s-5.7,2.5-5.7,5.7h0.8c0-2.7,2.2-4.9,4.9-4.9
												s4.9,2.2,4.9,4.9C26.9,156.6,26.9,193,26.9,193z"/>
											<circle class="st42" cx="16.7" cy="158.6" r="2.4"/>
											<circle class="st43" cx="16.8" cy="158.6" r="4.8"/>
											<polygon class="st44" points="263.3,107.5 183.9,101.9 188.4,192.9 260.6,192.9 											"/>
											
												<linearGradient id="SVGID_00000083062713535914329750000008050228040066413490_" gradientUnits="userSpaceOnUse" x1="184.1" y1="136.7102" x2="198.7831" y2="136.7102" gradientTransform="matrix(1 0 0 -1 0 284.1102)">
												<stop  offset="0" style="stop-color:#994C2F"/>
												<stop  offset="1" style="stop-color:#EF9E4F;stop-opacity:0"/>
											</linearGradient>
											
												<polygon style="opacity:0.36;fill:url(#SVGID_00000083062713535914329750000008050228040066413490_);enable-background:new    ;" points="
												198.6,102.9 184.1,101.9 188,192.9 198.8,192.9 											"/>
											
												<linearGradient id="SVGID_00000106846022927601435370000001973419216899442064_" gradientUnits="userSpaceOnUse" x1="-889.0885" y1="821.6898" x2="-875.0461" y2="821.6898" gradientTransform="matrix(-1 0 0 1 -625.74 -671.8898)">
												<stop  offset="0" style="stop-color:#994C2F"/>
												<stop  offset="1" style="stop-color:#EF9E4F;stop-opacity:0"/>
											</linearGradient>
											
												<polygon style="opacity:0.36;fill:url(#SVGID_00000106846022927601435370000001973419216899442064_);enable-background:new    ;" points="
												249.3,192.9 260.6,192.9 263.3,107.5 252,106.7 											"/>
											<path class="st47" d="M213.8,131.1h31.5c2.3,0,4.2,1.9,4.2,4.2V170c0,2.3-1.9,4.2-4.2,4.2h-31.5c-2.3,0-4.2-1.9-4.2-4.2
												v-34.7C209.7,132.9,211.5,131.1,213.8,131.1z"/>
											<path class="st37" d="M232.1,135.5h6.5c1.8,0,3.2,1.4,3.2,3.2v6c0,1.8-1.4,3.2-3.2,3.2h-6.5c-1.8,0-3.2-1.4-3.2-3.2v-6
												C228.9,136.9,230.3,135.5,232.1,135.5z"/>
											<path class="st48" d="M232.1,114.7h6.5c1.8,0,3.2,1.4,3.2,3.2v6c0,1.8-1.4,3.2-3.2,3.2h-6.5c-1.8,0-3.2-1.4-3.2-3.2v-6
												C228.9,116.1,230.3,114.7,232.1,114.7z"/>
											
												<linearGradient id="SVGID_00000058589253145042338210000001755713464411725210_" gradientUnits="userSpaceOnUse" x1="162.3998" y1="215.6905" x2="222.2124" y2="215.6905" gradientTransform="matrix(1 0 0 -1 34.6939 314.5905)">
												<stop  offset="0" style="stop-color:#DF8647"/>
												<stop  offset="0.49" style="stop-color:#EF9E4F"/>
												<stop  offset="1" style="stop-color:#DF8647"/>
											</linearGradient>
											<path style="fill:url(#SVGID_00000058589253145042338210000001755713464411725210_);" d="M200,93.6l54.4,3.7
												c1.5,0.1,2.6,1.4,2.5,2.8l-0.1,1.6c-0.1,1.5-1.4,2.6-2.8,2.5l-54.4-3.7c-1.5-0.1-2.6-1.4-2.5-2.8l0.1-1.6
												C197.3,94.6,198.5,93.5,200,93.6z"/>
											<polygon class="st50" points="162.2,198.3 129.3,198.3 130.1,196.3 161.5,196.3 											"/>
											<polygon class="st50" points="163.4,201.9 127.7,201.9 128.7,199.6 162.6,199.6 											"/>
											<polygon class="st50" points="164.8,206.1 125.9,206.1 127.1,203.4 163.9,203.4 											"/>
											<polygon class="st50" points="166.5,211.2 123.7,211.2 125.1,207.9 165.4,207.9 											"/>
											<polygon class="st50" points="168.6,217.4 121.1,217.4 122.8,213.4 167.2,213.4 											"/>
											<polygon class="st50" points="171.2,225.2 117.7,225.2 119.9,220.1 169.5,220.1 											"/>
											<polygon class="st50" points="174.5,235.1 113.5,235.1 116.2,228.6 172.3,228.6 											"/>
											<polygon class="st50" points="178.9,248.4 107.7,248.4 111.5,239.7 176,239.7 											"/>
											<path class="st21" d="M531.1,365H-21.7l14.3-105c3.8-4,9.1-6.3,14.6-6.4H531L531.1,365z"/>
										</g>
									</g>
								</g>
							</g>
							<path class="st51" d="M142.5,7.4C85.3,7.4,38.9,53.8,38.8,111.1c0,0,0,0,0,0.1c0,78.7,85.2,177.2,103.7,177.2
								c17.8,0,103.7-101.5,103.7-177.2C246.3,53.9,199.9,7.5,142.5,7.4C142.6,7.4,142.6,7.4,142.5,7.4z M142.5,161.8
								c-28,0-50.6-22.7-50.6-50.6s22.7-50.6,50.6-50.6c28,0,50.6,22.7,50.6,50.6C193.2,139.1,170.5,161.7,142.5,161.8
								C142.6,161.8,142.6,161.8,142.5,161.8z"/>
							
								<linearGradient id="SVGID_00000158746999811311616420000015437190344435020945_" gradientUnits="userSpaceOnUse" x1="138.4603" y1="156.5902" x2="168.2603" y2="156.5902" gradientTransform="matrix(1 0 0 -1 34.7 314.5902)">
								<stop  offset="9.000000e-02" style="stop-color:#B0B75F"/>
								<stop  offset="1" style="stop-color:#6A8B48"/>
							</linearGradient>
							<path style="fill:url(#SVGID_00000158746999811311616420000015437190344435020945_);" d="M203,168.7
								c0,10.3-6.7,18.7-14.9,18.7s-14.9-8.4-14.9-18.7c0-10.4,2.6-40.1,14.9-40.1C199.7,128.6,203,158.4,203,168.7z"/>
							
								<linearGradient id="SVGID_00000141446496790172218510000006468601892069387440_" gradientUnits="userSpaceOnUse" x1="161.9977" y1="125.4914" x2="176.4292" y2="125.4914" gradientTransform="matrix(1 0 0 -1 34.7 314.5902)">
								<stop  offset="9.000000e-02" style="stop-color:#B0B75F"/>
								<stop  offset="1" style="stop-color:#6A8B48"/>
							</linearGradient>
							<path style="fill:url(#SVGID_00000141446496790172218510000006468601892069387440_);" d="M211.1,192.2c-0.1-4-3.4-7.1-7.4-7
								s-7.1,3.4-7,7.4c0,0.1,0,0.3,0,0.4h14.4C211.1,192.8,211.1,192.5,211.1,192.2z"/>
							<path class="st41" d="M216.6,189.3h0.8v-32.8c0-2.8-2.3-5.1-5.1-5.1s-5.1,2.3-5.1,5.1l0,0h0.7c0.2-2.4,2.3-4.3,4.8-4.1
								c2.2,0.2,3.9,1.9,4.1,4.1L216.6,189.3z"/>
							<circle class="st54" cx="207.4" cy="158.3" r="4.3"/>
							<circle class="st42" cx="207.4" cy="158.3" r="2.2"/>
							
								<linearGradient id="SVGID_00000116213867765313835630000012276181514465209777_" gradientUnits="userSpaceOnUse" x1="176.7979" y1="124.6402" x2="186.9395" y2="124.6402" gradientTransform="matrix(1 0 0 -1 34.7 314.5902)">
								<stop  offset="9.000000e-02" style="stop-color:#B0B75F"/>
								<stop  offset="1" style="stop-color:#6A8B48"/>
							</linearGradient>
							<path style="fill:url(#SVGID_00000116213867765313835630000012276181514465209777_);" d="M221.6,192.2c0-2.8-2.3-5.1-5.1-5.1
								s-5.1,2.3-5.1,5.1l0,0c0,0.2,0,0.4,0,0.6h10.1C221.6,192.7,221.6,192.6,221.6,192.2z"/>
							<rect x="186.8" y="187.4" class="st3" width="2.4" height="5.3"/>
							<rect y="-8.3" class="st56" width="283.5" height="291.8"/>
							<path class="st1" d="M93.1,25.9c-1.5,0-2.9,0.2-4.3,0.5c-1.2-5.2-6.5-8.5-11.7-7.2c-3.8,0.9-6.7,3.9-7.4,7.7
								c-3.2-3.3-8.5-3.3-11.8-0.1c-1.2,1.2-2.1,2.8-2.4,4.4h47.8C103.2,28.3,98.7,25.9,93.1,25.9z"/>
							<path class="st42" d="M89.5,22.3c-1.5,0-2.9,0.2-4.3,0.5c-1.2-5.2-6.5-8.5-11.7-7.3c-3.8,0.9-6.7,3.9-7.4,7.7
								c-3.2-3.3-8.5-3.3-11.8-0.1c-1.2,1.2-2.1,2.8-2.4,4.5h47.8C99.6,24.7,95.1,22.3,89.5,22.3z"/>
							<path class="st1" d="M261,19c-1.6,0-3.1,0.2-4.7,0.5c-1.3-5.7-7-9.2-12.7-7.9c-4.1,1-7.2,4.3-8,8.4c-3.3-3.6-9-3.9-12.6-0.5
								c-1.5,1.4-2.5,3.3-2.8,5.3H272C272,21.6,267.1,19,261,19z"/>
							<path class="st42" d="M257.1,15.1c-1.6,0-3.1,0.2-4.7,0.6c-1.4-5.7-7.1-9.2-12.8-7.8c-4.1,1-7.2,4.2-7.9,8.3
								c-3.4-3.6-9-3.8-12.6-0.4c-1.5,1.4-2.4,3.2-2.7,5.1h51.7C268.1,17.7,263.2,15.1,257.1,15.1z"/>
							<ellipse class="st1" cx="192.3" cy="254.3" rx="27.7" ry="1.1"/>
							<ellipse class="st1" cx="132.1" cy="223.6" rx="19.2" ry="1.1"/>
							<path class="st57" d="M188.2,232.7c3.1-0.2,6-1.8,8-4.2c1.7-2.5,1.5-5.6,1.4-9.4c0-0.4,6,0,4-2.3c-5.6-6.5-3.4-4-6.1-7
								c-2.2-2.1-5.1-3.1-8.1-2.8c-3-0.2-5.9,0.9-7.9,3c-1.8,2.5-1.6,6-1.4,9.8c0.1,3.7,0,6.9,2,9.2
								C182,231.3,185,232.7,188.2,232.7"/>
							<g>
								<path class="st57" d="M181.1,210c0.2-0.6,0-1.2-0.5-1.5c-1.2-0.6-2.7-0.4-3.5,0.7c-0.9,1-2,1.8-2.2,3.1s1.2,2.1,1.6,2
									C177,214.1,181.1,210,181.1,210z"/>
								<path class="st57" d="M178,209c0,0,1.2-3.9-1.9-5.2c-2.1-1.2-4.8-0.5-6.1,1.6c-0.5,0.9-0.7,2-0.5,3c0,4.7-2.1,6.1-4.5,5.9
									c1.4,0.8,3.9,2,5.6,0c1.7-2,3.5-5,5.4-3.8C177.9,211.6,178,209,178,209z"/>
							</g>
							<path class="st58" d="M209,230.8c-6.3,0-11.5,5.1-11.5,11.4c0,6.3,5.1,11.5,11.4,11.5c6.3,0,11.5-5.1,11.5-11.4l0,0
								C220.4,235.9,215.3,230.8,209,230.8L209,230.8z M209,251.1c-4.9,0-8.9-4-8.9-8.9s4-8.9,8.9-8.9s8.9,4,8.9,8.9l0,0
								C217.9,247.1,213.9,251.1,209,251.1L209,251.1z"/>
							<path class="st58" d="M173.2,230.7c-6.3,0-11.5,5.1-11.5,11.4c0,6.3,5.1,11.5,11.4,11.5c6.3,0,11.5-5.1,11.5-11.4l0,0
								C184.6,235.9,179.5,230.8,173.2,230.7L173.2,230.7z M173.2,251.2c-5,0-9-4-9-9s4-9,9-9s9,4,9,9l0,0
								C182.2,247.2,178.1,251.2,173.2,251.2C173.1,251.2,173.1,251.2,173.2,251.2L173.2,251.2z"/>
							<line class="st59" x1="184.6" y1="242.4" x2="181.9" y2="230.4"/>
							<path class="st59" d="M173.1,242.1l35.7,0.8l-3.6-22.3l-4.8,0.6l0.9,0.8l4-0.6"/>
							<line class="st59" x1="173.2" y1="241.8" x2="206.6" y2="228.5"/>
							<path class="st59" d="M183.5,230.4c0,0,0.6-1.4-4.1-1.9c-4.6-0.6-4.5,0.9-4.5,0.9L183.5,230.4z"/>
							<circle class="st60" cx="190.3" cy="242.6" r="3"/>
							<polygon class="st59" points="205.2,221.1 202.7,227 203.7,227.1 							"/>
							<g>
								<line class="st61" x1="208.7" y1="242.3" x2="208.7" y2="233.4"/>
								<line class="st61" x1="208.7" y1="242.3" x2="213.1" y2="234.6"/>
								<line class="st61" x1="208.7" y1="242.3" x2="216.4" y2="237.9"/>
								<line class="st61" x1="208.7" y1="242.2" x2="217.5" y2="242.3"/>
								<line class="st61" x1="208.7" y1="242.2" x2="216.3" y2="246.6"/>
								<line class="st61" x1="208.7" y1="242.2" x2="213.1" y2="249.9"/>
								<line class="st61" x1="208.7" y1="242.2" x2="208.7" y2="251"/>
								<line class="st61" x1="208.8" y1="242.2" x2="204.3" y2="249.8"/>
								<line class="st61" x1="208.8" y1="242.2" x2="201.1" y2="246.6"/>
								<line class="st61" x1="208.8" y1="242.2" x2="199.9" y2="242.2"/>
								<line class="st61" x1="208.8" y1="242.3" x2="201.1" y2="237.8"/>
								<line class="st61" x1="208.8" y1="242.3" x2="204.3" y2="234.6"/>
							</g>
							<g>
								<line class="st61" x1="172.9" y1="242.2" x2="172.9" y2="233.4"/>
								<line class="st61" x1="172.8" y1="242.2" x2="177.3" y2="234.6"/>
								<line class="st61" x1="172.8" y1="242.2" x2="180.5" y2="237.8"/>
								<line class="st61" x1="172.8" y1="242.2" x2="181.7" y2="242.2"/>
								<line class="st61" x1="172.8" y1="242.1" x2="180.5" y2="246.6"/>
								<line class="st61" x1="172.8" y1="242.1" x2="177.2" y2="249.8"/>
								<line class="st61" x1="172.9" y1="242.1" x2="172.8" y2="251"/>
								<line class="st61" x1="172.9" y1="242.1" x2="168.4" y2="249.8"/>
								<line class="st61" x1="172.9" y1="242.1" x2="165.2" y2="246.5"/>
								<line class="st61" x1="172.9" y1="242.2" x2="164" y2="242.1"/>
								<line class="st61" x1="172.9" y1="242.2" x2="165.2" y2="237.7"/>
								<line class="st61" x1="172.9" y1="242.2" x2="168.5" y2="234.5"/>
							</g>
							<g>
								<path class="st57" d="M201.3,222.9l-0.3-0.3c-1,1.1-2.5,1.6-3.9,1.4c-2.3-0.4-3-5.6-3-5.6h-0.4c0,0.2,0.8,5.6,3.4,5.9
									C198.6,224.6,200.2,224.1,201.3,222.9z"/>
								<path class="st57" d="M202.4,222.3L202.4,222.3c-0.1-0.1-0.2-0.1-0.3,0l0,0c-0.6,0.3-0.8,0.2-0.8,0.2c0-0.4,0.2-0.7,0.4-1
									c0.1-0.1,0.1-0.2,0-0.3s-0.2-0.1-0.3,0l0,0c-0.2,0.3-0.7,1.1-0.3,1.5c0.3,0.4,0.8,0,1.3,0
									C202.5,222.6,202.5,222.5,202.4,222.3L202.4,222.3z"/>
								<path class="st57" d="M202.6,223L202.6,223c0-0.1-0.1-0.2-0.2-0.2l0,0c-0.2,0-0.7,0-0.9,0c0-0.1,0-0.2,0-0.2s0-0.2-0.2-0.2
									c-0.1,0-0.2,0.1-0.2,0.2l0,0c0,0.2,0.1,0.4,0.3,0.6c0.4,0.2,0.9,0.2,1.3,0C202.6,223.2,202.6,223.1,202.6,223z"/>
							</g>
							<g>
								<path class="st62" d="M190.3,232c0,0,4.6,3.4,0.4,6.4"/>
								<path class="st57" d="M189.6,238.9l4.3,1.9c0,0,0.9-0.4-0.3-0.9c-0.7-0.2-1.3-0.5-1.8-1
									C191.2,238.4,189.8,237.5,189.6,238.9"/>
								<path class="st57" d="M189.6,238.9l4.3,1.9c0,0,0.9-0.4-0.3-0.9c-0.7-0.2-1.3-0.5-1.8-1
									C191.2,238.4,189.8,237.5,189.6,238.9z"/>
							</g>
							<g>
								<path class="st62" d="M189.5,232.5c0,0,3,7.9-5.6,5.6"/>
							</g>
							<path class="st63" d="M178.6,224.9c0,0,0,1.4,0.3,1.4c6.1,0.2,12.2,0,18.2-0.6c0.4,0,0.3-1.1,0.3-1.4
								C197.4,224,188.7,225.4,178.6,224.9"/>
							<path class="st42" d="M192,214.3c0.1,2.4-1.8,4.5-4.3,4.6s-4.5-1.8-4.6-4.3c-0.1-2.4,1.8-4.5,4.2-4.6
								C189.8,209.9,191.9,211.8,192,214.3L192,214.3"/>
							<path class="st57" d="M190.6,216.3c0.5,0,0.9-0.5,0.8-0.9l0,0c0-0.5-0.4-0.9-0.9-0.9s-0.9,0.4-0.9,0.9
								C189.7,215.9,190.1,216.3,190.6,216.3L190.6,216.3"/>
							<path class="st64" d="M195.5,220.9c-1.9,1.2-4.4,1.2-6.3,0"/>
							<g>
								<path class="st63" d="M186,208.1c-1.1,0.3-2.1,0.6-3,0.9c-1.5,0.5-2.8,0.9-3.7,1.2c-3.3,0.9-4.4,0.7-4.7,0.4s-0.2-0.2,0-0.7
									c0.6-2.6,1.6-4.9,7.4-6.8c2.6-0.9,5.3-1,8-0.4c1.4,0.2,2.7,1.1,3.5,2.3c0.1,0.2,0.1,0.4,0,0.6c-0.4,0.6-1.9,1.1-3.5,1.6
									l-1.7,0.4l-2.1,0.6"/>
								<path class="st57" d="M179.5,210.7L179.5,210.7c1-0.3,2.3-0.7,3.8-1.2c0.9-0.3,1.8-0.6,3-0.9l2.1-0.6l1.7-0.4
									c2.1-0.6,3.5-1.1,3.9-1.9c0.1-0.3,0.1-0.7,0-1c-0.8-1.5-2.3-2.5-3.9-2.8c-2.8-0.7-5.7-0.5-8.4,0.4c-6,2-7.1,4.6-7.8,7.3
									c-0.1,0.4-0.1,0.9,0.3,1.3C174.9,211.5,176.5,211.5,179.5,210.7 M185.9,207.8c-1.1,0.3-2.1,0.6-3,0.9
									c-1.5,0.5-2.8,0.9-3.7,1.2c-3.3,0.9-4.4,0.7-4.7,0.4s-0.2-0.2,0-0.7c0.6-2.6,1.6-4.9,7.4-6.8c2.6-0.9,5.3-1,8-0.4
									c1.4,0.2,2.7,1.1,3.5,2.3c0.1,0.2,0.1,0.4,0,0.6c-0.4,0.6-1.9,1.1-3.5,1.6l-1.7,0.4L185.9,207.8z"/>
								<path class="st57" d="M177.5,211.1c0.1,0,0.1,0,0.2,0c0.7-0.4,1.4-0.7,2.2-0.9c5.3-2.2,10.4-4.4,10.3-6.5
									c0-0.8-0.8-1.4-2.3-1.8c-0.2-0.1-0.3,0-0.4,0.2l0,0c0,0.2,0.1,0.3,0.2,0.4c1.2,0.4,1.9,0.8,1.9,1.3c0,1.8-6.9,4.7-9.9,5.9
									c-2.2,0.9-2.4,1-2.5,1.2s0,0.3,0.2,0.4l0,0h0.2"/>
								<path class="st57" d="M193.5,205.6c0,0,0.1,0,0.2-0.1c0.1-0.1,0.1-0.3,0-0.4c-4.4-2.4-9.7-2.2-13.9,0.4
									c-2,1.2-3.8,2.8-5.2,4.7c-0.1,0.1-0.1,0.3,0,0.4c0.1,0.1,0.3,0.1,0.4,0l0,0c1.4-1.8,3.1-3.4,5-4.5c4-2.5,9.1-2.6,13.3-0.3
									L193.5,205.6"/>
							</g>
							<path class="st57" d="M204.1,226c-0.1-0.1-0.2-0.1-0.3,0c-0.2,0-0.7,0.3-0.9,0l0,0c0.3-0.1,0.6-0.2,0.8-0.4
								c0-0.1,0-0.1,0-0.2l0,0c-0.1-0.1-0.2-0.1-0.3,0c-0.6,0.4-0.7,0.4-0.7,0.4c-0.1-0.4,0-0.8,0.2-1.1c0-0.1-0.2-0.2-0.3-0.1
								c-0.1,0-0.1,0.1-0.1,0.1c-0.1,0.4-0.1,0.9,0,1.3c-0.7,1.2-2,2-3.5,2.1c-2.3,0-4.1-4.8-4.2-4.8l-0.4,0.1
								c0,0.2,1.9,5.1,4.6,5.1c1.5-0.1,2.8-0.8,3.6-2.1c0.1,0.1,0.1,0.1,0.2,0.2c0.4,0.2,0.9,0.2,1.3,0c0-0.1,0-0.1,0-0.2L204.1,226
								z"/>
							<path class="st65" d="M121.1,217.7l23.3-0.3l-1.4-13.7l-3.2,0.4l0.6,0.5l2.8-0.4"/>
							<path class="st66" d="M131.2,210.4c0,0,8.7,0.3,1.3,6.9"/>
							<path class="st57" d="M132.2,217.3h3.6c0,0,0.6-0.5-0.5-0.6c-0.5,0.1-1.1,0-1.6-0.2C133.2,216.4,132,216.2,132.2,217.3z"/>
							<path class="st57" d="M136.2,217.3h3.6c0,0,0.5-0.6-0.5-0.5c-0.5,0.1-1.1,0.1-1.6,0C137.1,216.4,135.9,216.2,136.2,217.3z"/>
							<path class="st66" d="M132,209.9c0,0,8.1,0.3,4.8,6.7"/>
							<path class="st57" d="M140.3,204.5l-0.2-0.2c-0.7,0.7-1.6,1.1-2.6,0.9c-1.5-0.3-2-3.7-2-3.7h-0.3c0,0.2,0.5,3.6,2.3,4
								C138.5,205.7,139.6,205.3,140.3,204.5z"/>
							<path class="st57" d="M141.1,204.2L141.1,204.2 M140.9,204.2c-0.4,0.2-0.5,0-0.5,0s0-0.4,0.2-0.7 M140.6,203.3
								c-0.1,0-0.1,0-0.2,0c0,0.2-0.4,0.8-0.2,1c0.2,0.3,0.6,0,0.8,0l0.1-0.1L140.6,203.3z"/>
							<path class="st57" d="M141.2,204.7L141.2,204.7L141.2,204.7c-0.2,0.1-0.4,0.1-0.6,0c0-0.1,0-0.1,0-0.2 M140.3,204.5
								c0,0.1,0.1,0.3,0.2,0.4c0.3,0.1,0.6,0.1,0.9,0l-0.1-0.2L140.3,204.5z"/>
							<path class="st67" d="M123,223.7c-2.6,0-4.7-2.1-4.7-4.7c0-2.6,2.1-4.7,4.7-4.7s4.7,2.1,4.7,4.7l0,0
								C127.7,221.6,125.6,223.7,123,223.7z M123,215.4c-2.1,0-3.7,1.7-3.7,3.7c0,2.1,1.7,3.7,3.7,3.7s3.7-1.7,3.7-3.7l0,0
								c0.1-2.1-1.6-3.8-3.6-3.8H123V215.4z"/>
							<circle class="st68" cx="123" cy="219" r="4.8"/>
							<path class="st69" d="M126.8,219c0,2.1-1.7,3.8-3.8,3.8c-2.1,0-3.8-1.7-3.8-3.8s1.7-3.8,3.8-3.8l0,0
								C125.1,215.2,126.8,216.9,126.8,219L126.8,219z"/>
							<circle class="st57" cx="123" cy="219" r="2.9"/>
							<path class="st67" d="M145.7,223.6c-2.6,0-4.7-2.1-4.7-4.7c0-2.6,2.1-4.7,4.7-4.7c2.6,0,4.7,2.1,4.7,4.7l0,0
								C150.4,221.5,148.3,223.6,145.7,223.6z M145.7,215.3c-2.1,0-3.7,1.7-3.7,3.7c0,2.1,1.7,3.7,3.7,3.7s3.7-1.7,3.7-3.7l0,0
								c0.1-2.1-1.6-3.8-3.6-3.8h-0.1L145.7,215.3L145.7,215.3z"/>
							<circle class="st68" cx="145.7" cy="218.9" r="4.8"/>
							<circle class="st69" cx="145.7" cy="218.9" r="3.8"/>
							<circle class="st57" cx="145.7" cy="218.9" r="2.9"/>
							<path class="st70" d="M151.3,218.4c-0.5-4-4.8-4-5.7-6.2c-0.5-1.8-0.7-3.7-0.7-5.6c2.1,1.1,2.8,0.6,2.8,0.6s1.1-0.8,0.4-3.2
								c-1.3-0.4-2.7,0.1-3.5,1.1c-0.3-0.6-0.9-2.2-0.9-2.2s-1.8,0.4-3.9,0.6c-0.9,0-0.8,1.3,0.3,1.2s3-0.5,3-0.5s0,6.4,0,8.8
								c-0.5,2.7-2.8,4.7-5.6,4.9H127c0-2.1,1.2-4.1,3.1-5c0.9-0.4,1.2-1.8-1.2-1.9c-2.5-0.1-6.1,0-9.3,0c-3.3,0-3.6,2.2-4.5,4.8
								c0,0-0.8,2.3,0.9,2.3h9.6c0,0.2,0.3,0.7,2,0.7c2.8,0,9.4,0.3,10.9,0.3c1.2,1.3,4.1,0,5-0.4c2-0.8,4.2-0.6,6,0.5
								C150.8,220.3,151.5,219.8,151.3,218.4z"/>
							<path class="st71" d="M151.3,218.4c-0.5-4-4.8-4-5.7-6.2c-0.5-1.8-0.7-3.7-0.7-5.6c2.1,1.1,2.8,0.6,2.8,0.6s1.1-0.8,0.4-3.2
								c-1.3-0.4-2.7,0.1-3.5,1.1c-0.3-0.6-0.9-2.2-0.9-2.2s-1.8,0.4-3.9,0.6c-0.9,0-0.8,1.3,0.3,1.2s3-0.5,3-0.5s0,6.4,0,8.8
								c-0.5,2.7-2.8,4.7-5.6,4.9H127c0-2.1,1.2-4.1,3.1-5c0.9-0.4,1.2-1.8-1.2-1.9c-2.5-0.1-6.1,0-9.3,0c-3.3,0-3.6,2.2-4.5,4.8
								c0,0-0.8,2.3,0.9,2.3h9.6c0,0.2,0.3,0.7,2,0.7c2.8,0,9.4,0.3,10.9,0.3c1.2,1.3,4.1,0,5-0.4c2-0.8,4.2-0.6,6,0.5
								C150.8,220.3,151.5,219.8,151.3,218.4z"/>
							<path class="st72" d="M117.8,210.7c1.1-1.6,3-2.5,5-2.3h8.4c0,0,0.5,2.3-2.4,2.3H117.8z"/>
							<path class="st70" d="M129.1,218.6c-4.3,1-8.8,1-13.1,0c0.5-3.4,3.5-6,7-5.9C126.2,212.8,128.9,215.4,129.1,218.6z"/>
							<path class="st71" d="M129.1,218.6c-4.3,1-8.8,1-13.1,0c0.5-3.4,3.5-6,7-5.9C126.2,212.8,128.9,215.4,129.1,218.6z"/>
							<path class="st57" d="M129.3,211.7c2.3,0.2,4.6-0.7,6.3-2.3c1.3-2,2-4.3,2-6.6c0-0.3,4.4,0.7,3.1-1.3c-3.3-5.3-2-3.3-3.6-5.8
								c-1.4-1.7-3.4-2.7-5.6-2.8c-2.1-0.5-4.3,0-6.1,1.3c-1.4,2-2.1,4.5-2.1,6.9c-0.6,2.3-0.4,4.7,0.4,6.9
								C125,210.1,127,211.4,129.3,211.7"/>
							<path class="st42" d="M123.1,204.8c0,0-0.2,1,0,1.1c4.4,0.8,8.9,1.3,13.4,1.5c0.3,0,0.4-0.8,0.4-1s-6.4-0.2-13.9-1.6"/>
							<path class="st42" d="M134.1,198.6c-0.1,1.8-1.6,3.2-3.5,3.1s-3.2-1.6-3.1-3.5c0-0.1,0-0.3,0-0.4c0.2-1.8,1.9-3,3.6-2.8
								C132.9,195.2,134.2,196.8,134.1,198.6z"/>
							<path class="st57" d="M131.7,198.9c0.4,0,0.7-0.2,0.8-0.6l0,0c0-0.4-0.2-0.7-0.6-0.7c-0.4,0-0.7,0.2-0.7,0.6
								C131.1,198.6,131.4,198.9,131.7,198.9"/>
							<path class="st73" d="M142.1,204.7c-0.2,0.1-0.3,0.2-0.6,0.3l0,0c0.2-0.1,0.3-0.3,0.4-0.4l0,0l0,0h-0.2l-0.4,0.4
								c-0.1-0.2-0.1-0.5,0-0.7l0,0 M141.1,204.2c-0.1,0.3,0,0.6,0.1,0.9c-0.2,0.9-0.9,1.7-1.8,2c-1.5,0.5-3.5-2.3-3.6-2.3l-0.2,0.2
								c0,0,2.2,3,3.9,2.5c0.9-0.3,1.7-1.1,2-2c0,0,0,0,0.2,0c0.3,0,0.6-0.1,0.8-0.3c0-0.1,0-0.1,0-0.2L141.1,204.2z"/>
							<path class="st74" d="M136.8,204.4c0,0-3.7,1.3-4.6-1.7"/>
							<path class="st75" d="M147,203.8c0.4,1.1,0.4,2.3,0,3.4"/>
							<path class="st70" d="M123.8,198.5c0,0-4.9-2.8-2.5-6.9c2.2-3.4,6.4-4.9,10.3-4c3.6,0.5,6.2,3.8,6,7.4
								c-3.2-1.6-6.8-2-10.3-1.1C125.6,194.9,124.3,196.5,123.8,198.5z"/>
							<path class="st76" d="M123.8,198.5c0,0-4.9-2.8-2.5-6.9c2.2-3.4,6.4-4.9,10.3-4c3.6,0.5,6.2,3.8,6,7.4
								c-3.2-1.6-6.8-2-10.3-1.1C125.6,194.9,124.3,196.5,123.8,198.5z"/>
							<path class="st77" d="M110.6,215l0.7-0.3c0.6,1.2,1.7,2,3,2.3c0,0.3,0.1,0.7,0.2,1C112.7,217.8,111.2,216.6,110.6,215"/>
							<path class="st77" d="M106.9,211.7l5.3-1.6c0,0,1.2,3.5-1.6,4.4C109.6,214.9,108.2,215.1,106.9,211.7"/>
							<path class="st77" d="M110.2,210.4l0.9-0.3l-0.6-1.8c-0.1-0.2-0.3-0.3-0.6-0.2c0,0-0.4,0-0.3,0.5L110.2,210.4"/>
							<path class="st77" d="M107.8,211.1l0.9-0.3l-0.6-1.9c-0.1-0.2-0.4-0.2-0.6-0.2c-0.2,0.1-0.3,0.3-0.3,0.5L107.8,211.1"/>
							<path class="st57" d="M120.5,214.9c0,0-0.9,2.9,0.9,2.8c-0.1-0.7-0.3-1.5-0.6-2.1c0.5,0.6,0.9,1.3,1.2,2
								c0.1-0.2,0.2-0.4,0.2-0.6c0-0.1,0-0.3,0-0.4C122.1,216,121.7,215.4,120.5,214.9"/>
							<path class="st57" d="M122.3,216.2v0.3c0,0.1,0,0.2,0,0.3c0.8-0.5,1.7-0.7,2.6-0.8c-1.7,0.6-2.3,1.1-2.5,1.6
								c1.8,1.5,3.4-1.8,3.4-1.8C123.4,215.2,122.6,215.8,122.3,216.2"/>
							<path class="st57" d="M148.3,201.3c1.2,0.2,3.2,1.5,2.1,2.8c-0.3,0.4,0.3,1,0.6,0.6c1.5-1.9-0.5-4-2.5-4.3
								C148,200.4,147.8,201.1,148.3,201.3L148.3,201.3L148.3,201.3z"/>
							<path class="st57" d="M148.9,198c1.8-0.1,3.5,0.7,4.6,2.1c1.2,1.4,1.9,3.3,0.4,4.7c-0.4,0.4,0.2,0.9,0.6,0.6
								c1.5-1.5,1.6-3.9,0.1-5.5l-0.1-0.1c-1.3-1.8-3.4-2.9-5.6-2.8c-0.5,0-0.5,0.9,0,0.8V198z"/>
							<path class="st57" d="M148.6,194.3c1.7-0.3,3.5,0,5.1,0.7c1.4,0.8,2.7,1.8,3.7,3.1c2.3,2.1,2.5,5.7,0.5,8.1
								c-0.2,0.2-0.2,0.4,0,0.6c0.2,0.2,0.4,0.2,0.6,0c2.3-2.6,2.2-6.5-0.2-8.9c-1.1-1.4-2.4-2.6-4-3.5c-1.7-0.8-3.7-1.1-5.6-0.9
								c-0.5,0-0.5,0.9,0,0.8L148.6,194.3z"/>
							<ellipse class="st1" cx="176.1" cy="197.2" rx="11.6" ry="0.7"/>
							<g>
								<path class="st57" d="M181.2,185.1l-0.1-0.2c-0.7,0.8-1.7,1.3-2.8,1.2c-1.7-0.2-2.8-3.6-2.8-3.6h-0.3c0,0,1.1,3.6,3,3.8
									C179.4,186.4,180.5,186,181.2,185.1z"/>
								<path class="st57" d="M182,184.7L182,184.7c-0.1,0-0.1,0-0.2,0c-0.4,0.3-0.6,0.2-0.6,0.2c-0.1-0.3-0.1-0.7,0.1-1
									c0,0,0-0.1,0-0.2c-0.1,0-0.2,0-0.3,0.1v0.1c0,0.2-0.4,0.8,0,1.1s0.6,0,0.9,0C182.1,184.9,182.1,184.8,182,184.7L182,184.7z"
									/>
								<path class="st57" d="M182.2,185.2L182.2,185.2c-0.1-0.1-0.1-0.1-0.2,0c-0.2,0.1-0.5,0.1-0.7,0c0-0.1,0-0.1,0-0.2
									c-0.1,0-0.1,0-0.2,0 M181.1,185.2c0,0.2,0.1,0.3,0.3,0.4c0.3,0.1,0.6,0.1,0.9,0c0,0-0.1-0.3-0.1-0.4H181.1z"/>
							</g>
							<g>
								<path class="st75" d="M171.1,188.8c1.7,1,2.3,3.3,1.2,5c-0.2,0.3-0.4,0.6-0.6,0.8"/>
								<path class="st57" d="M171.2,194.8h2.2c0,0,0.3-0.3-0.3-0.3c-0.3,0.1-0.6,0.1-0.9,0C171.8,194.3,171.1,194.1,171.2,194.8z"
									/>
							</g>
							<path class="st57" d="M172.9,189.6c1.8,0.1,3.5-0.5,4.8-1.8c1-1.5,1.6-3.3,1.5-5.1c0-0.3,3.3,0.6,2.4-0.9
								c-2.5-4.1-1.6-2.5-2.8-4.4c-1.1-1.3-2.6-2.1-4.3-2.1c-1.6-0.4-3.3,0-4.7,1c-1.1,1.5-1.7,3.4-1.6,5.3
								c-0.4,1.8-0.3,3.6,0.3,5.3C169.6,188.4,171.1,189.4,172.9,189.6"/>
							<path class="st78" d="M168.2,184.3c0,0-0.2,0.8,0,0.8c3.4,0.7,6.8,1,10.3,1.2c0.2,0,0.3-0.6,0.3-0.8
								C178.8,185.4,173.8,185.4,168.2,184.3"/>
							<g>
								<path class="st57" d="M170.6,176.9c0.1-0.3,0-0.5-0.2-0.7c-0.5-0.3-1.2-0.1-1.6,0.3c-0.4,0.5-0.9,0.8-1,1.4
									c-0.1,0.6,0.5,1,0.7,0.9C168.7,178.7,170.6,176.9,170.6,176.9z"/>
								<path class="st57" d="M169.2,176.4c0,0,0.6-1.8-0.9-2.4c-1-0.6-2.2-0.2-2.8,0.8c-0.2,0.4-0.3,0.9-0.2,1.4
									c0,2.2-0.9,2.8-2.1,2.8c0.6,0.3,1.8,0.9,2.6,0s1.6-2.3,2.5-1.8S169.2,176.4,169.2,176.4z"/>
							</g>
							<g>
								<path class="st78" d="M172.7,176l-1.4,0.4l-1.7,0.5c-1.5,0.4-2,0.3-2.1,0.2c0-0.1,0-0.2,0-0.3c0.3-1.2,0.8-2.3,3.4-3.1
									c1.2-0.4,2.5-0.5,3.7-0.2c0.7,0.1,1.2,0.5,1.6,1.1c0,0.1,0,0.2,0,0.3c-0.5,0.4-1,0.6-1.6,0.7l-0.8,0.2L172.7,176"/>
								<path class="st57" d="M170,177.2L170,177.2c0.5,0,1.1-0.3,1.7-0.6l1.4-0.4l1-0.3l0.8-0.2c0.9-0.3,1.6-0.5,1.8-0.9
									c0.1-0.1,0.1-0.3,0-0.4c-0.4-0.7-1.1-1.1-1.8-1.3c-1.3-0.3-2.6-0.2-3.8,0.2c-2.8,0.9-3.3,2.1-3.6,3.3
									c-0.1,0.2,0,0.4,0.1,0.6C167.9,177.5,168.6,177.5,170,177.2 M172.7,176l-1.4,0.4l-1.7,0.5c-1.5,0.4-2,0.3-2.1,0.2
									c0-0.1,0-0.2,0-0.3c0.3-1.2,0.8-2.3,3.4-3.1c1.2-0.4,2.5-0.5,3.7-0.2c0.7,0.1,1.2,0.5,1.6,1.1c0,0.1,0,0.2,0,0.3
									c-0.5,0.4-1,0.6-1.6,0.7l-0.8,0.2L172.7,176z"/>
								<path class="st57" d="M169,177.4L169,177.4l1-0.4c2.4-1,4.8-2,4.7-3c0-0.4-0.4-0.7-1.1-0.8 M173.4,173.3
									c0.6,0.2,0.9,0.4,0.9,0.6c0,0.8-3.2,2.1-4.6,2.8c-1.4,0.6-1.1,0.5-1.1,0.6s0,0.1,0,0.2l0,0"/>
								<path class="st57" d="M176.3,174.9L176.3,174.9c0-0.1,0-0.1,0-0.2c-2-1.1-4.4-1-6.4,0.2c-0.9,0.6-1.7,1.3-2.4,2.1v0.2
									 M167.7,177.2c0.6-0.8,1.4-1.5,2.3-2.1c1.8-1.2,4.2-1.2,6.1-0.2l0,0"/>
							</g>
							<path class="st79" d="M178.8,183.9c-1.2,0.4-2.6,0.1-3.5-0.8"/>
							<g>
								<path class="st75" d="M173.8,188.8c1.7,1,2.3,3.3,1.2,5c-0.2,0.3-0.4,0.6-0.6,0.8"/>
								<path class="st57" d="M174,194.8h2.2c0,0,0.3-0.3-0.3-0.3c-0.3,0.1-0.7,0.1-1,0C174.6,194.3,173.8,194.1,174,194.8z"/>
							</g>
							<g>
								<path class="st42" d="M182.9,196.6c0.8,0.2,1.6-0.2,1.8-1s-0.2-1.6-1-1.8c-0.3-0.1-0.5-0.1-0.8,0c-0.8-0.2-1.6,0.2-1.8,1
									s0.2,1.6,1,1.8C182.3,196.7,182.6,196.7,182.9,196.6"/>
								<path class="st57" d="M182.9,196.9c-0.9,0-1.7-0.8-1.7-1.7s0.8-1.7,1.7-1.7s1.7,0.8,1.7,1.7
									C184.6,196.2,183.8,196.9,182.9,196.9L182.9,196.9z M182.9,194.1c-0.6,0-1.2,0.5-1.2,1.2c0,0.6,0.5,1.2,1.2,1.2
									c0.6,0,1.2-0.5,1.2-1.2l0,0C184.1,194.7,183.6,194.1,182.9,194.1L182.9,194.1L182.9,194.1z"/>
								<path class="st57" d="M182.9,197L182.9,197v-0.6h0.3v0.6H182.9z M182.5,197h-0.4l0.3-0.5c0.1,0,0.2,0,0.3,0L182.5,197z
									 M183.6,197l-0.3-0.5h0.2l0.4,0.4L183.6,197z M181.7,196.8c-0.1-0.1-0.2-0.2-0.3-0.3l0.4-0.3c0.1,0.1,0.1,0.1,0.2,0.2
									L181.7,196.8z M184.2,196.5l-0.4-0.6c0-0.1,0-0.1,0-0.2l0.5,0.3L184.2,196.5z M181.2,196.2c0-0.1,0-0.2,0-0.4h0.5
									c0,0.1,0,0.2,0,0.3L181.2,196.2z M184.6,195.8h-0.5c0,0,0-0.2,0-0.3h0.6v0.1L184.6,195.8z M181.6,195.4h-0.5
									c0-0.1,0-0.3,0-0.4h0.6c0,0.1,0,0.1,0,0.2L181.6,195.4z M184.1,195.1c0-0.1,0-0.2,0-0.3l0.5-0.3c0,0.1,0,0.3,0,0.4
									L184.1,195.1z M181.8,194.9l-0.5-0.3c0.1-0.1,0.1-0.2,0.2-0.3l0.4,0.3c0,0-0.1,0-0.1,0.1L181.8,194.9L181.8,194.9z
									 M183.9,194.5c-0.1-0.1-0.1-0.1-0.2-0.2l0.4-0.4c0.1,0.1,0.2,0.2,0.3,0.3L183.9,194.5z M182.2,194.3l-0.4-0.4l0.3-0.2
									l0.3,0.5L182.2,194.3z M183.5,194.1h-0.3v-0.5h0.4L183.5,194.1z M182.7,194.1v-0.5c0.1,0,0.3,0,0.4,0l0,0v0.6h-0.3
									L182.7,194.1z"/>
								<path class="st57" d="M182.9,195.9c0.4,0,0.7-0.3,0.7-0.7s-0.3-0.7-0.7-0.7s-0.7,0.3-0.7,0.7
									C182.2,195.6,182.5,195.9,182.9,195.9"/>
								<path class="st42" d="M168.8,196.6c0.8,0,1.5-0.6,1.5-1.4c0-0.8-0.6-1.5-1.4-1.5s-1.5,0.6-1.5,1.4c0,0,0,0,0,0.1
									C167.4,196,168,196.6,168.8,196.6L168.8,196.6"/>
								<path class="st57" d="M168.8,196.9c-0.9,0-1.7-0.8-1.7-1.7s0.8-1.7,1.7-1.7s1.7,0.8,1.7,1.7
									C170.5,196.2,169.7,196.9,168.8,196.9L168.8,196.9z M168.8,194.1c-0.6,0-1.2,0.5-1.2,1.2s0.5,1.2,1.2,1.2
									c0.6,0,1.2-0.5,1.2-1.2l0,0C170,194.7,169.5,194.1,168.8,194.1L168.8,194.1L168.8,194.1z"/>
								<path class="st57" d="M168.8,197L168.8,197v-0.6h0.3v0.6H168.8z M168.4,197H168l0.3-0.5c0.1,0,0.2,0,0.3,0L168.4,197z
									 M169.6,197l-0.3-0.5h0.2l0.4,0.4L169.6,197z M167.7,196.8c-0.1-0.1-0.2-0.2-0.3-0.3l0.4-0.3c0.1,0.1,0.1,0.1,0.2,0.2
									L167.7,196.8z M170.2,196.5l-0.4-0.4c0-0.1,0-0.1,0-0.2l0.5,0.3l-0.1,0.1V196.5z M167.2,196c0-0.1,0-0.2,0-0.4h0.6
									c0,0.1,0,0.2,0,0.3L167.2,196z M170.5,195.6H170c0,0,0-0.2,0-0.3h0.6C170.5,195.4,170.5,195.5,170.5,195.6z M167.6,195.2
									H167c0-0.1,0-0.3,0-0.4h0.6C167.5,194.9,167.5,195.1,167.6,195.2z M170,195c0-0.1,0-0.2,0-0.3l0.5-0.3c0,0.1,0,0.3,0,0.4
									L170,195z M167.7,194.8l-0.5-0.3c0.1-0.1,0.1-0.2,0.2-0.3l0.4,0.3C167.8,194.5,167.7,194.6,167.7,194.8L167.7,194.8z
									 M169.7,194.6c-0.1-0.1-0.1-0.1-0.2-0.2l0.4-0.4c0.1,0.1,0.2,0.2,0.3,0.3L169.7,194.6z M168,194.4l-0.4-0.4
									c0.1-0.1,0.2-0.2,0.4-0.2l0.2,0.5L168,194.4z M169.3,194.2H169v-0.5h0.4L169.3,194.2z M168.5,194.2v-0.5c0.1,0,0.3,0,0.4,0
									l0,0v0.6h-0.3L168.5,194.2z"/>
								<path class="st57" d="M168.8,195.9c0.4,0,0.7-0.3,0.7-0.7s-0.3-0.7-0.7-0.7l0,0c-0.4,0-0.7,0.3-0.7,0.7
									C168.1,195.6,168.4,195.9,168.8,195.9"/>
								<path class="st80" d="M171.1,194.7h7c0.2,0,0.3,0.1,0.3,0.3l0,0c0,0.2-0.1,0.3-0.3,0.3h-7c-0.2,0-0.3-0.1-0.3-0.3l0,0
									C170.8,194.9,170.9,194.7,171.1,194.7z"/>
								<path class="st81" d="M182.6,191.2l-4,3.5h-9.8c-0.2,0-0.4,0.2-0.4,0.5l0,0l0,0c0,0.2,0.2,0.4,0.4,0.4H180
									c0.2,0,0.4-0.2,0.4-0.4s-0.1-0.5-0.4-0.5l0,0l2.8-2.3L182.6,191.2z"/>
							</g>
							<g>
								<path class="st57" d="M182.8,195.2c-0.1,0-0.2-0.1-0.2-0.2v-9.8h-1.7c-0.1,0-0.1,0-0.2,0l-0.3-0.4c-0.1-0.1-0.1-0.2,0-0.3
									c0.1,0,0.1,0,0.2,0c0,0,1.9,0,2.2,0c0.1,0,0.2,0.1,0.2,0.2l0,0V195C183.1,195.1,183,195.2,182.8,195.2L182.8,195.2z"/>
							</g>
							<path class="st81" d="M182.4,185.3h0.3c0.4,0,0.6,0.3,0.6,0.6l0,0v9.2c0,0.3-0.2,0.5-0.5,0.5l0,0l0,0c-0.3,0-0.5-0.2-0.5-0.5
								l0,0L182.4,185.3L182.4,185.3z"/>
							<g>
								<path class="st57" d="M181.6,187.6L181.6,187.6h-0.4v-0.1c0-0.1,0-0.2,0-0.2l1.6-2.4c0.1-0.1,0.2-0.1,0.3,0s0.1,0.2,0,0.3
									l-1.1,2.6C181.9,187.7,181.7,187.7,181.6,187.6L181.6,187.6z"/>
							</g>
							<g>
								<path class="st57" d="M181.3,187.5l-0.2-0.2c-0.9,0.5-2,0.6-3,0.2c-1.6-0.8-1.3-3.1-1.3-3.1h-0.3c0,0.1-0.3,2.6,1.5,3.4
									C179.1,188.2,180.3,188.1,181.3,187.5z"/>
								<path class="st57" d="M182.1,187.4L182.1,187.4c-0.1,0-0.1,0-0.2,0c-0.5,0-0.6,0-0.6,0s0.1-0.4,0.4-0.6 M181.8,186.6
									c-0.1,0-0.1,0-0.2,0c-0.2,0.2-0.7,0.6-0.5,1c0.2,0.3,0.6,0.2,0.9,0.2L181.8,186.6z"/>
								<path class="st57" d="M182.2,187.9L182.2,187.9c0-0.1,0-0.1,0-0.2c0,0-0.5,0-0.6-0.2c0-0.1,0-0.1,0-0.2c0,0,0,0,0-0.2
									 M181.4,187.1c-0.1,0.1-0.1,0.3,0,0.4c0.2,0.2,0.6,0.3,0.9,0.3c0,0-0.1,0.1-0.1,0L181.4,187.1z"/>
							</g>
							<path class="st42" d="M176.5,179.6c-0.2,1.4-1.4,2.4-2.8,2.2s-2.4-1.4-2.2-2.8c0.2-1.4,1.4-2.4,2.8-2.2
								C175.7,176.9,176.7,178.2,176.5,179.6L176.5,179.6z"/>
							<path class="st57" d="M175.5,180.6c0.3,0,0.5-0.2,0.6-0.4l0,0c0-0.3-0.1-0.5-0.4-0.6c0,0,0,0-0.1,0c-0.3,0-0.5,0.2-0.5,0.5
								s0.2,0.5,0.5,0.5l0,0"/>
							<ellipse class="st1" cx="104.7" cy="269.8" rx="15.3" ry="1.1"/>
							<circle class="st82" cx="100.6" cy="245.1" r="10.7"/>
							<path class="st82" d="M88.5,243.4c1.3,1.7,7.9-2,7.9-2l0.1-6.3c-2.2,0.5-4.2,1.8-5.6,3.6C89.5,241.2,88.5,243.4,88.5,243.4z"
								/>
							<path class="st57" d="M130.7,250.5c-0.1-0.1-0.2-0.1-0.3,0c-0.3,0.2-0.7,0.3-1.1,0.2l0,0c0.3-0.1,0.6-0.3,0.9-0.6
								c0-0.1,0-0.2,0-0.2l0,0c-0.1-0.1-0.3-0.1-0.4,0l0,0c-0.6,0.5-0.8,0.4-0.8,0.4s0-0.7,0-1.3c0-0.1,0-0.3-0.2-0.3
								c-0.1,0-0.3,0-0.3,0.2c-0.2,0.5-0.2,1.1,0,1.6c-0.8,1.5-2.2,2.6-3.9,2.8c-2.8,0.3-5.3-5.3-5.3-5.3l-0.5,0.2
								c0,0.3,2.8,5.9,5.8,5.6c1.7-0.2,3.3-1.3,4.2-2.8c0.1,0.1,0.2,0.1,0.3,0.2c0.5,0.1,1.1,0,1.5-0.3c0.1-0.1,0.1-0.2,0-0.3
								L130.7,250.5z"/>
							<path class="st57" d="M99.9,225.2c0.3-4.5-3.2-8.4-7.7-8.6c-0.2,0-0.5,0-0.7,0c-6.3,0-9.8,4.5-9.5,7.6c0.3,3,2.5,2.8,3.1,7.4
								c0.6,4.6-1.7,6.3-4.3,6.6c-2.6,0.4-4.9-0.5-5.2-2.3s-1.1,6,4.2,6.9c3.8,0.8,7.7-0.7,10-3.8c2-2,3.3-4.6,3.5-7.4
								c0-3-0.6-3.9,0.9-5c1-0.8,2.5-0.7,3.4,0.3L99.9,225.2z"/>
							<g>
								<path class="st83" d="M102.7,226.1c0.2-0.6,0-1.2-0.5-1.6c-1.3-0.6-2.8-0.3-3.7,0.8c-1.1,0.8-1.9,2-2.4,3.3
									c-0.2,1.1,1.3,2.3,1.7,2.1C98.3,230.4,102.7,226.1,102.7,226.1z"/>
							</g>
							<path class="st57" d="M107.5,258.6c4.1,0,8-1.7,10.8-4.8c2.5-3,2.5-7.2,2.8-12c0-0.6,7.8,0.8,5.4-2.6c-6.5-9-4-5.6-7.2-9.8
								c-2.6-2.9-6.4-4.4-10.3-4.3c-3.5-0.2-8.2,0-10.6,3s-2.8,7.7-2.8,12.5s-0.6,9,1.6,12.2c2.5,3.3,6.3,5.3,10.4,5.6"/>
							<path class="st84" d="M118.2,243.9c-2.7,1.3-5.9,1-8.2-0.9"/>
							<path class="st85" d="M95.3,247.2c0,0-0.3,1.9,0.2,1.9c8.1,1,16.3,1.3,24.5,1c0,0,0.3-1.3,0.4-1.8S108.6,248.8,95.3,247.2"/>
							<path class="st42" d="M114.2,234.9c-0.1,3.2-2.8,5.7-6,5.6c-3.2-0.1-5.7-2.8-5.6-6s2.8-5.7,6-5.6l0,0
								C111.9,229,114.4,231.7,114.2,234.9z"/>
							<path class="st57" d="M111.4,236.3c0.6,0,1.2-0.4,1.2-1.1v-0.1c0-0.6-0.5-1.2-1.1-1.2s-1.2,0.5-1.2,1.1
								C110.3,235.7,110.8,236.2,111.4,236.3"/>
							<path class="st86" d="M111.4,257.7c0,0.5,6,1.1,4.2,5.9"/>
							<path class="st57" d="M114.5,264.5l5.3-0.3c0,0,0.8-0.8-0.8-0.8c-0.8,0.2-1.5,0.2-2.3,0C115.8,263.2,113.9,263,114.5,264.5"
								/>
							<path class="st86" d="M107.1,254.3c0.3,4.8-1.8,9.4-5.6,12.4"/>
							<path class="st57" d="M100.4,266.6l3.8,3.7c0,0,1.1,0,0-1.1s-1-0.9-1.5-1.7C102.2,266.6,101.2,265.3,100.4,266.6"/>
							<g>
								<path class="st87" d="M94,239.3c1.4-0.8,3.1-0.8,4.5,0c1.8,1.4,2.8,3.5,2.8,5.8c0,3.4-1.6,6.6-4.2,8.7l-0.3-1
									c1-0.7,1.8-1.7,2.3-2.8c0.7-1.5,1-3.1,1-4.7c0-1.9-0.8-3.7-2.3-5c-1.1-0.6-2.4-0.6-3.5,0"/>
							</g>
							<g>
								<path class="st57" d="M92.8,255.7l0.4-0.6c-2-1.4-3.1-3.6-3.1-6c0.2-3.9,8.4-6.2,8.4-6.2l-0.2-0.6c-0.4,0-8.7,2.5-8.9,6.8
									C89.2,251.7,90.5,254.2,92.8,255.7z"/>
								<path class="st57" d="M93.8,257.4H94c0.1-0.1,0.1-0.3,0-0.5c-0.6-1-0.5-1.2-0.4-1.2c0,0,0.9,0,1.8,0.4
									c0.2,0.1,0.4,0,0.4-0.2c0.1-0.2,0-0.4-0.2-0.4l0,0c-0.4-0.2-2-0.8-2.6-0.2s0,1.4,0.4,2C93.5,257.4,93.7,257.4,93.8,257.4z"
									/>
								<path class="st57" d="M92.7,257.9L92.7,257.9c0.2-0.1,0.3-0.3,0.2-0.4c-0.2-0.5-0.2-1,0-1.5c0.1-0.1,0.2-0.2,0.3-0.2
									c0.2,0,0.3-0.2,0.3-0.4l0,0c0-0.2-0.2-0.3-0.4-0.3l0,0c-0.4,0.1-0.7,0.3-0.8,0.6c-0.3,0.7-0.3,1.4,0,2.1
									C92.3,257.8,92.5,257.9,92.7,257.9C92.6,257.9,92.7,257.9,92.7,257.9z"/>
							</g>
							
								<radialGradient id="SVGID_00000057133188778231706900000000468326583243971719_" cx="181.166" cy="9873.2725" r="57.0328" gradientTransform="matrix(1.11 0 0 -0.14 -57.95 1775.3102)" gradientUnits="userSpaceOnUse">
								<stop  offset="0" style="stop-color:#1F1F1D"/>
								<stop  offset="1" style="stop-color:#1F1F1D;stop-opacity:0.1"/>
							</radialGradient>
							
								<ellipse style="opacity:0.52;fill:url(#SVGID_00000057133188778231706900000000468326583243971719_);enable-background:new    ;" cx="143.7" cy="283.5" rx="63.4" ry="8.2"/>
							<ellipse class="st1" cx="60.9" cy="203.6" rx="44.9" ry="1.1"/>
							<rect x="93.3" y="188.6" class="st3" width="1.9" height="4.2"/>
							
								<linearGradient id="SVGID_00000087388730321065750920000000076285079756428459_" gradientUnits="userSpaceOnUse" x1="33.1432" y1="124.6402" x2="43.2848" y2="124.6402" gradientTransform="matrix(1 0 0 -1 34.7 314.5902)">
								<stop  offset="9.000000e-02" style="stop-color:#B0B75F"/>
								<stop  offset="1" style="stop-color:#6A8B48"/>
							</linearGradient>
							<path style="fill:url(#SVGID_00000087388730321065750920000000076285079756428459_);" d="M78,192.2c0-2.8-2.3-5.1-5.1-5.1
								c-2.8,0-5.1,2.3-5.1,5.1l0,0c0,0.2,0,0.4,0,0.6H78C78,192.6,78,192.4,78,192.2z"/>
							<path class="st56" d="M16.3,187c-0.5,5.2,0.1,10.2,4.5,11.6l3.3-0.2v-0.5c0-1.6-0.2-6.8-0.2-11.5
								C21.2,186.5,18.7,186.7,16.3,187"/>
							<line class="st66" x1="104.2" y1="185.3" x2="107" y2="187.9"/>
							<rect x="93.2" y="188.8" class="st3" width="1.9" height="4.2"/>
							<path class="st90" d="M60.7,163.5c-17.5,0-31.4,0-31.4,1s13.9,3.7,31.2,3.8s33-2.8,33-4l0,0
								C92.8,163.3,69.2,163.5,60.7,163.5z"/>
							<path class="st66" d="M100.4,188.9c0,0,3,0.6,1.4,2.4"/>
							<path class="st91" d="M42.5,190.1l2.1,0.2c0,0,0.4-0.3-0.3-0.3c-0.3,0-0.6,0-0.9-0.2C43.1,189.6,42.4,189.5,42.5,190.1"/>
							<path class="st57" d="M42.5,190.1l2.1,0.2c0,0,0.4-0.3-0.3-0.3c-0.3,0-0.6,0-0.9-0.2C43.1,189.6,42.4,189.5,42.5,190.1"/>
							<path class="st91" d="M75.6,190.3l-2.1,0.2c0,0-0.4-0.3,0.3-0.3c0.3,0,0.6-0.1,0.9-0.2C75,189.8,75.7,189.7,75.6,190.3"/>
							<path class="st57" d="M75.6,190.3l-2.1,0.2c0,0-0.4-0.3,0.3-0.3c0.3,0,0.6-0.1,0.9-0.2C75,189.8,75.7,189.7,75.6,190.3"/>
							<path class="st91" d="M58.5,190.1l-2,0.8c0,0-0.4-0.2,0.2-0.4c0.3-0.1,0.6-0.2,0.8-0.4C57.8,189.8,58.4,189.5,58.5,190.1"/>
							<path class="st57" d="M58.5,190.1l-2,0.8c0,0-0.4-0.2,0.2-0.4c0.3-0.1,0.6-0.2,0.8-0.4C57.8,189.8,58.4,189.5,58.5,190.1"/>
							<path class="st92" d="M40,202.6c2.8,0,5-2.2,5.1-5c0-2.8-2.2-5-5-5.1c-2.8,0-5,2.2-5.1,5l0,0C35,200.3,37.2,202.5,40,202.6z"
								/>
							<path class="st93" d="M40,202.7c2.9,0,5.2-2.3,5.2-5.1c0-2.9-2.3-5.2-5.1-5.2c-2.9,0-5.2,2.3-5.2,5.1c0,0,0,0,0,0.1
								C34.8,200.4,37.1,202.7,40,202.7L40,202.7"/>
							<path class="st94" d="M40,202.7c2.9,0,5.2-2.3,5.2-5.1c0-2.9-2.3-5.2-5.1-5.2c-2.9,0-5.2,2.3-5.2,5.1c0,0,0,0,0,0.1
								C34.8,200.4,37.1,202.7,40,202.7L40,202.7"/>
							<path class="st95" d="M40,202.7c2.9,0,5.2-2.3,5.2-5.1c0-2.9-2.3-5.2-5.1-5.2c-2.9,0-5.2,2.3-5.2,5.1l0,0
								C34.9,200.4,37.1,202.7,40,202.7L40,202.7z"/>
							<path class="st57" d="M40,200.1c1.4,0,2.6-1.1,2.6-2.5s-1.1-2.6-2.5-2.6s-2.6,1.1-2.6,2.5l0,0
								C37.5,198.9,38.6,200.1,40,200.1"/>
							<path class="st92" d="M78.4,202.8c2.8,0,5.1-2.2,5.1-5s-2.2-5.1-5-5.1s-5.1,2.2-5.1,5v0.1C73.4,200.6,75.7,202.8,78.4,202.8z
								"/>
							<path class="st93" d="M78.3,202.9c2.9,0,5.2-2.3,5.2-5.1c0-2.9-2.3-5.2-5.1-5.2c-2.9,0-5.2,2.3-5.2,5.1v0.1
								C73.1,200.7,75.4,203,78.3,202.9C78.3,203,78.3,203,78.3,202.9"/>
							<path class="st94" d="M78.3,202.9c2.9,0,5.2-2.3,5.2-5.1c0-2.9-2.3-5.2-5.1-5.2c-2.9,0-5.2,2.3-5.2,5.1v0.1
								C73.1,200.7,75.4,203,78.3,202.9C78.3,203,78.3,203,78.3,202.9"/>
							<path class="st95" d="M78.4,202.9c2.9,0,5.2-2.3,5.2-5.1c0-2.9-2.3-5.2-5.1-5.2s-5.2,2.3-5.2,5.1v0.1
								C73.3,200.6,75.6,202.9,78.4,202.9z"/>
							<path class="st57" d="M78.4,200.3c1.4-0.1,2.4-1.4,2.3-2.8c-0.1-1.2-1.1-2.2-2.3-2.3c-1.4,0-2.5,1.1-2.6,2.5l0,0
								C75.8,199.2,77,200.3,78.4,200.3"/>
							<path class="st57" d="M102.3,173.3l1.1-1.7l-10.9,2c0,0,1.3,1.3,1.3,1.4c0,0.1-0.4,0.6-0.4,0.6l0.4,1h0.6
								c-0.7,1.6-1,3.2-0.9,4.9c-0.3,1.8-0.1,3.6,0.7,5.2c1.1,1.5,2.8,2.4,4.6,2.5c1.8,0,3.5-0.8,4.7-2.1c1-1.6,1.4-3.4,1.2-5.3
								c0-0.3,3.4,0.4,2.4-1.1c-2.8-4-1.8-2.5-3.1-4.3c-0.5-0.6-1.2-1.1-2-1.4l1.4-0.3h2.6l-2.4-0.6L102.3,173.3z"/>
							<path class="st57" d="M87.3,176.6c-0.9-0.1-1.7,0.5-2,1.4c-0.2-0.4-0.6-0.6-1-0.6c-0.1,0-0.2,0-0.3,0
								c-0.9-0.7-1.9-1.2-3.1-1.3c-1.4-0.4-2.9-0.2-4.2,0.6c-1.6,1.2-0.3,0.2-3.6,2.8c-1.2,1,1.8,1.3,1.7,1.4
								c-0.5,1.5-0.6,3.1-0.1,4.6c1.2,2.5,4.3,3.6,6.9,2.4c0.4-0.2,0.7-0.4,1.1-0.7c1-1.2,1.6-2.7,1.8-4.3c0.2-0.8,0.3-1.5,0.4-2.3
								c0.4,0.1,0.7-0.1,0.9-0.5c0.1-0.3,0.1-0.7,0-1c1,0,1,1.7,1.2,2.9s1.5,1.4,2.3,1.4c-1.1-0.5-1.6-1.6-0.4-3.5
								c0.7-1,0.4-2.3-0.5-2.9C88,176.7,87.6,176.6,87.3,176.6z"/>
							<path class="st57" d="M62.8,174.4c-0.3,0.2-0.5,0.5-0.7,0.8c0,0.4,0-1.1-0.7-1.2c0.1,0.4,0,0.9-0.4,1c-0.9,0.1-1.9,0.1-2.8,0
								c-0.9,0-1.7-0.4-2.3-1c0.4,1.6,0.6,2.1,1.9,2.4c-0.5,0.2-1,0.5-1.3,1l-2.4,3.3c-0.8,1.1,1.8,0.7,1.8,0.9
								c-0.1,1.4,0.2,2.8,0.9,4c0.9,1,2.3,1.6,3.7,1.6c1.4-0.1,2.7-0.8,3.5-1.9c0.6-1.3,0.8-2.7,0.6-4.1c0-0.7-0.1-1.4-0.2-2.1
								c0.8-0.7,0.8-1.9,0.1-2.7c-0.2-0.2-0.4-0.4-0.7-0.5C62.3,175.3,62.8,174.4,62.8,174.4z"/>
							<path class="st57" d="M41.6,176.5c-1.2-0.8-2.8-1-4.2-0.6c-1.1,0.2-2.2,0.6-3,1.3c-0.1-0.1-0.2-0.1-0.4-0.1
								c-0.4,0-0.8,0.2-1,0.6c-0.2-0.9-1.1-1.5-2-1.4c-1.2,0-2.1,1-2.1,2.2c0,0.5,0.2,1,0.5,1.4c1.2,1.9,0.6,3-0.4,3.5
								c0.8,0,2.1-0.1,2.3-1.4c0.2-1.3,0.2-2.8,1.2-2.8c-0.1,0.3-0.1,0.7,0,1c0,0.3,0.6,0.5,0.9,0.5c0,0.7,0.2,1.5,0.4,2.3
								c0.1,1.6,0.7,3.1,1.7,4.3c1.2,1,2.8,1.4,4.4,1.1c1.5-0.4,2.8-1.4,3.6-2.8c0.5-1.5,0.5-3.1,0-4.6c0-0.2,3-0.4,1.8-1.4
								C41.8,176.7,43.1,177.7,41.6,176.5z"/>
							<path class="st63" d="M64.5,183.3c0,0,0,0.6,0,0.7c-2.7,0.3-5.4,0.4-8.1,0.3c-0.2,0-0.2-0.4-0.2-0.6S60.1,183.9,64.5,183.3"
								/>
							<path class="st42" d="M58.2,179.2c0.1,1.1,1,1.9,2.1,1.9s1.9-0.9,1.9-2c0,0,0,0,0-0.1c0-1.1-0.9-1.9-2-1.9l0,0
								C59,177.1,58.2,178.1,58.2,179.2C58.2,179.1,58.2,179.1,58.2,179.2"/>
							<path class="st57" d="M58.9,180c-0.2,0-0.4-0.2-0.4-0.4s0.1-0.4,0.3-0.4c0,0,0,0,0.1,0c0.2,0,0.4,0.2,0.4,0.4
								S59.1,180,58.9,180"/>
							<path class="st96" d="M56.9,182.2c0.9,0.5,2,0.4,2.8-0.3"/>
							<path class="st63" d="M93.6,184.2v0.8c3.5,0.4,7,0.6,10.5,0.5c0.2,0,0.2-0.6,0.3-0.8C104.4,184.6,99.3,184.9,93.6,184.2"/>
							<path class="st42" d="M101.8,178.9c-0.1,1.4-1.3,2.5-2.7,2.4l0,0c-1.4-0.1-2.5-1.3-2.4-2.7v-0.1c0-1.4,1.2-2.5,2.6-2.4
								c0.1,0,0.1,0,0.2,0C100.8,176.2,101.9,177.4,101.8,178.9C101.8,178.8,101.8,178.8,101.8,178.9"/>
							<path class="st57" d="M100.7,179.1c0.3,0,0.5-0.2,0.5-0.5l0,0c0-0.3-0.2-0.5-0.4-0.5c0,0,0,0-0.1,0c-0.3-0.1-0.6,0.1-0.6,0.4
								c-0.1,0.3,0.1,0.6,0.4,0.6C100.6,179.1,100.7,179.1,100.7,179.1"/>
							<path class="st74" d="M104.6,183.9c0,0-3.1,0.6-3.3-1.9"/>
							<line class="st66" x1="100.4" y1="184.4" x2="104.3" y2="188.5"/>
							<polygon class="st97" points="49,180.2 45.4,179.5 46.1,185.4 48.3,185.4 							"/>
							<polygon class="st98" points="46.1,181 49,180.3 49.1,186.8 46.9,186.6 							"/>
							<polygon class="st75" points="46.1,181 49,180.3 49.1,186.8 46.9,186.6 							"/>
							<path class="st99" d="M34.5,185.1c0,0,0,0.7,0.3,0.7c3-0.4,6-1,8.9-1.8c0.2,0,0-0.6,0-0.7C43.7,183.1,39.5,184.4,34.5,185.1"
								/>
							<path class="st42" d="M40.2,178.9c0.2,1.2-0.5,2.4-1.7,2.6l0,0c-1.2,0.4-2.4-0.3-2.8-1.4c-0.4-1.2,0.3-2.4,1.4-2.8
								c0.2,0,0.3-0.1,0.5-0.1C38.8,177,40,177.7,40.2,178.9"/>
							<path class="st57" d="M39.5,180.5c0.3-0.1,0.4-0.3,0.3-0.6c0-0.1,0-0.1-0.1-0.2h-0.2c-0.2-0.1-0.5,0-0.6,0.3
								c0,0.1,0,0.2,0,0.2C39,180.4,39.2,180.6,39.5,180.5"/>
							<path class="st57" d="M45.3,181.7h-0.2c-0.3,0.6-0.8,1-1.5,1.1c-1,0.1-2.1-1.9-2.1-1.9h-0.2c0,0,1.1,2.2,2.3,2.1
								C44.4,182.8,45,182.3,45.3,181.7"/>
							<path class="st57" d="M45.7,181.3L45.7,181.3L45.7,181.3l-0.3,0.2c0,0,0-0.3,0-0.5l0,0l0,0c0,0-0.1,0.6,0,0.7
								c0.1,0.1,0.4,0,0.5-0.2s0,0,0,0"/>
							<path class="st57" d="M45.9,181.6L45.9,181.6L45.9,181.6c-0.2,0-0.4,0-0.5,0l0,0h-0.1c0,0,0,0,0,0.1c0.1,0.1,0.1,0.1,0.2,0.2
								c0.2,0,0.4,0,0.6,0l0,0"/>
							<path class="st66" d="M41.8,187.1c0,0,2.5,0.8,1.1,2.8"/>
							<path class="st66" d="M41.6,187.4c0,0,2.4,2.8-1.6,3.1"/>
							<path class="st57" d="M47,182.6L47,182.6c-0.1,0-0.4,0.2-0.5,0.2l0,0c0.1-0.1,0.2-0.2,0.3-0.3l0,0l0,0c0,0,0,0-0.1,0
								s-0.3,0.2-0.3,0.2s0-0.2,0-0.5s0,0,0,0l0,0c-0.1,0.2-0.1,0.4,0,0.6c-0.1,0.6-0.6,1.1-1.2,1.4c-1,0.4-2.4-1.4-2.5-1.4l0,0
								c0,0,1.5,1.9,2.6,1.5c0.6-0.2,1.1-0.8,1.3-1.4l0,0c0.2,0,0.4-0.1,0.5-0.2l0,0l0,0"/>
							<path class="st74" d="M43.7,182.4c0,0-2.8,1.5-3.8-0.7"/>
							<polygon class="st97" points="69.2,180.3 72.8,179.6 72.1,185.6 69.9,185.5 							"/>
							<polygon class="st42" points="72.1,181.2 69.2,180.4 69,186.9 71.2,186.8 							"/>
							<polygon class="st100" points="72.1,181.2 69.2,180.4 69,186.9 71.2,186.8 							"/>
							<path class="st99" d="M83.6,185.3c0,0,0,0.7-0.3,0.7c-3-0.4-6-1-8.9-1.9c-0.2,0,0-0.5,0-0.7
								C74.4,183.3,78.6,184.7,83.6,185.3"/>
							<path class="st42" d="M78,179.1c-0.2,1.2,0.5,2.3,1.7,2.6s2.4-0.5,2.6-1.7s-0.5-2.3-1.7-2.6s-2.4,0.4-2.8,1.6v0.1"/>
							<path class="st57" d="M78.8,180.7c-0.2-0.1-0.4-0.3-0.3-0.5c0-0.1,0.1-0.2,0.1-0.2c0.1,0,0.1,0,0.2,0c0.2-0.1,0.5,0,0.6,0.3
								c0,0.1,0,0.2,0,0.2c-0.1,0.2-0.3,0.4-0.5,0.4"/>
							<path class="st66" d="M76.3,187.3c0,0-2.5,0.8-1.1,2.8"/>
							<path class="st66" d="M76.5,187.6c0,0-2.5,2.8,1.5,3.1"/>
							<g>
								<path class="st57" d="M76.6,181.1c0,0-1.1,2.1-2.1,1.9c-0.6-0.1-1.2-0.5-1.4-1.1l0,0c0.1-0.2,0-0.5,0-0.6s0,0,0,0l0,0v0.5
									c0,0,0,0-0.3-0.2 M72.6,181.6L72.6,181.6L72.6,181.6l0.3,0.2l0,0c-0.1,0-0.3,0-0.4,0 M72.4,181.8L72.4,181.8L72.4,181.8
									c0.2,0.1,0.4,0.1,0.6,0l0,0c0.3,0.6,0.9,1.1,1.6,1.1c1.2,0.2,2.3-1.9,2.3-2L72.4,181.8z"/>
								<path class="st57" d="M73.2,184.3c-0.6-0.2-1-0.8-1.2-1.4c0.1-0.2,0.1-0.4,0-0.6l0,0l0,0c0,0.3,0,0.5,0,0.5s0,0-0.3-0.2
									s0,0-0.1,0l0,0l0,0c0.1,0.1,0.1,0.2,0.3,0.3l0,0c-0.1,0-0.3-0.1-0.4-0.2h-0.2l0,0c0.1,0.1,0.3,0.2,0.5,0.2l0,0
									C72.1,183.5,72.5,184,73.2,184.3c1.1,0.4,2.6-1.5,2.8-1.5l-0.1-0.1C75.8,182.6,74.2,184.7,73.2,184.3z"/>
							</g>
							<path class="st74" d="M74.5,182.5c0,0,2.8,1.6,3.8-0.6"/>
							<polygon class="st97" points="49.6,182.3 52.9,180.7 53.8,186.6 51.7,187.1 							"/>
							<polygon class="st42" points="52.6,182.3 49.6,182.4 51.3,188.7 53.4,188 							"/>
							<polygon class="st75" points="52.6,182.3 49.6,182.4 51.3,188.7 53.4,188 							"/>
							<path class="st66" d="M58.5,187c0,0-2.1,1.4-0.3,2.8"/>
							<path class="st66" d="M58.7,187.3c0,0-1.5,3.5,2.3,2.5"/>
							<g>
								<path class="st57" d="M53.6,182.9L53.6,182.9c0.5,0.5,1.1,0.8,1.8,0.7c1.2-0.2,1.6-2.5,1.6-2.6h-0.2c0,0-0.4,2.3-1.5,2.4
									c-0.6,0.1-1.3-0.2-1.7-0.6l0,0c0-0.2,0-0.5-0.1-0.6s0,0-0.1,0l0,0c0,0.2,0,0.3,0,0.5c0,0,0,0-0.3,0 M52.9,182.5L52.9,182.5
									L52.9,182.5c0.1,0,0.2,0,0.4,0l0,0C53.3,182.5,53,182.5,52.9,182.5C52.8,182.5,52.9,182.5,52.9,182.5L52.9,182.5L52.9,182.5
									c0.1,0.2,0.4,0.3,0.7,0.3L52.9,182.5z"/>
								<path class="st57" d="M54.6,185.1c-0.6-0.1-1.2-0.4-1.5-1c0-0.2,0-0.5,0-0.6s0,0,0,0l0,0l-0.1,0.4c0,0,0,0-0.3-0.2
									 M52.5,183.7L52.5,183.7L52.5,183.7c0.1,0.1,0.2,0.2,0.3,0.2l0,0c0,0-0.3,0-0.4,0c-0.1,0,0,0,0,0l0,0l0,0c0,0,0.3,0.2,0.6,0
									l0,0c0.4,0.6,1,0.9,1.6,0.9c1.2,0,2.1-2.1,2.1-2.2h-0.2c0,0-0.8,2.4-2,2.4L52.5,183.7z"/>
							</g>
							<path class="st56" d="M16.2,187.2c-0.5,5.2,0,10.2,4.5,11.6l3.4-0.2v-0.4c0-1.6-0.2-6.8-0.2-11.5
								C21.1,186.8,18.6,187,16.2,187.2"/>
							<g>
								<path class="st101" d="M65.1,185.5H48.4c-5.6,0-11,0.3-16,0.5c0,5.6,0,11.9,0,11.9l0,0v0.1c12.1-0.5,32.3-1,54.7,0v-1.6l0,0
									c0-2.1,0-6.4,0-10.4C80.2,185.8,72.9,185.6,65.1,185.5"/>
								<path class="st101" d="M95.5,186.7c0,5.6,0,11.8,0,11.8l0,0v0.2c2.8,0.2,5.6,0.4,8.4,0.6c0,0,5.6,0,5.3-7.8c0-1,0-2.2,0-3.5
									c-4.1-0.5-8.7-0.9-13.5-1.2"/>
								<path class="st90" d="M95.5,186.5c-7.8-0.4-25.1-1.1-33.9-1.2c-10.4,0-20.3,0-29.2,0.6 M32.4,185.9
									c-2.8,0.2-13.9,0.9-16.4,1.1c-0.5,5.2,0.2,10.2,4.5,11.6c27.6-1.7,55.4-1.6,83,0.5c0,0,5.6,0,5.4-7.8c0-1,0-2.2,0-3.5
									c-4.1-0.4-8.6-0.8-13.4-1.2"/>
							</g>
							<path class="st102" d="M81.7,163.7c1.3,7.4,1.3,14.9,0,22.3 M66.2,163.5c1.3,7.3,1.5,14.7,0.6,22 M51.9,163.6
								c-0.9,7.3-1,14.6-0.3,21.8 M38.5,163.9c-2,7.1-2.4,14.5-1.3,21.8 M103.1,168.1c0,0-7.3,0.9-6.4,5.2s0,12.5,11.8,11.5
								 M86.8,197.8c0,0-0.2-19.5,0.6-21c0.8-1.5,6.8-2.4,7.7,0.3c0.3,1,0,21.5,0,21.5 M23.8,198c0,0-0.4-20.8,0.4-22.3
								s7.1-1.3,7.7-0.3s0.1,22.3,0.1,22.3 M20.5,198.5c27.6-1.7,55.4-1.6,83,0.5c0,0,5.6,0,5.4-7.8s0.8-26.5-15.8-27.3
								c-12-0.6-61.3-0.6-66,0s-7.6,6.6-8.7,10.9C16.9,180.4,12.3,196,20.5,198.5L20.5,198.5z"/>
							<g>
								<path class="st57" d="M53.9,187.6c0,0-1.9,7,2.5,6.6c-0.3-1.8-0.8-3.5-1.6-5.1c1.2,1.4,2.2,2.9,2.9,4.6
									c0.2-0.5,0.3-1.1,0.3-1.6c0-0.3-0.1-0.7-0.2-1C57,189.6,55.6,188.3,53.9,187.6"/>
								<path class="st57" d="M58,190.7c0.1,0.2,0.2,0.4,0.2,0.6c0.1,0.2,0.1,0.4,0.1,0.6c1.8-1.2,3.9-1.9,6-2c-4,1.4-5.4,2.8-5.9,4
									c4.3,3.4,7.8-4.5,7.8-4.5C60.8,188.2,58.7,189.3,58,190.7"/>
							</g>
							<rect y="0" class="st56" width="283.5" height="283.5"/>
							<rect y="0" class="st56" width="283.5" height="283.5"/>
						</g>
					</g>
				</g>
			</g>
		</g>
	</g>
</g>
<g class="st103">
	<path class="st104" d="M325.1,40l-3.9,8.2c-4.3-2.5-9.8-4.3-13.2-4.3c-2.7,0-4.5,1-4.5,3c0,7.1,21.7,3.1,21.7,17.9
		c0,8.2-7.3,12.6-16.5,12.6c-6.9,0-13.9-2.6-18.8-6.6l4.1-8.1c4.2,3.7,10.6,6.2,14.9,6.2c3.3,0,5.3-1.2,5.3-3.6
		c0-7.3-21.7-2.9-21.7-17.5c0-7.6,6.5-12.4,16.4-12.4C314.9,35.4,320.9,37.2,325.1,40z"/>
	<path class="st104" d="M341.4,44.1v8.2H361v8.2h-19.6v8.3h22.4V77H331V35.9h32.2v8.2H341.4z"/>
	<path class="st104" d="M406.5,77l-0.1-26.7l-9.9,22.6h-6.8l-9.9-22.6V77h-9.3V35.8H382l11.2,24.5l11.2-24.5h11.4V77H406.5z"/>
	<path class="st104" d="M433.4,69.4l-3,7.6h-10.8l17.7-41.1h10.8L465.5,77h-11.2l-2.9-7.6H433.4z M442.4,46.3l-6,15.2h11.9
		L442.4,46.3z"/>
	<path class="st104" d="M498,77l-18.9-25.3V77h-9.8V35.9h9.2l19,25.4V35.9h9.8V77H498z"/>
	<path class="st104" d="M524.8,69.4l-3,7.6h-10.8l17.7-41.1h10.8L556.9,77h-11.2l-2.9-7.6H524.8z M533.9,46.3l-6,15.2h11.9
		L533.9,46.3z"/>
</g>
<g class="st103">
	<path class="st104" d="M303.6,103.5v8.2h19.6v8.2h-19.6v8.3H326v8.2h-32.8V95.3h32.2v8.2H303.6z"/>
	<path class="st104" d="M369.7,119.1c0,10.9-7.2,17.7-18.7,17.7c-11.6,0-19-6.9-19-17.7V95.3h10.5v23.9c0,5.6,3.6,9,8.6,9
		c4.9,0,8.3-3.4,8.3-9V95.3h10.4V119.1z"/>
	<path class="st104" d="M396,124.8h-0.3h-7.9v11.6h-10.5V95.3h18.4c10.9,0,17.1,5.2,17.1,14.3c0,6.3-2.6,10.8-7.5,13.2l8.6,13.6
		h-11.9L396,124.8z M395.7,116.6c4.5,0,7.2-2.3,7.2-6.6c0-4.3-2.6-6.5-7.2-6.5h-7.9v13.1H395.7z"/>
	<path class="st104" d="M461.6,115.8c0,12-9.5,21.1-22.3,21.1c-12.7,0-22.2-9-22.2-21.1c0-12,9.5-20.9,22.2-20.9
		C452.1,94.9,461.6,103.9,461.6,115.8z M427.8,115.8c0,6.9,5.3,12.3,11.6,12.3c6.3,0,11.4-5.3,11.4-12.3s-5.1-12.2-11.4-12.2
		C433.1,103.7,427.8,108.9,427.8,115.8z"/>
	<path class="st104" d="M485.1,95.3c10.5,0,16.6,5.2,16.6,14.3c0,9.6-6.1,15.2-16.6,15.2h-7.5v11.6h-10.5V95.3H485.1z M477.6,116.6
		h6.9c4.6,0,7.2-2.3,7.2-6.6c0-4.3-2.6-6.5-7.2-6.5h-6.9V116.6z"/>
	<path class="st104" d="M517.6,103.5v8.2h19.6v8.2h-19.6v8.3h22.4v8.2h-32.8V95.3h32.2v8.2H517.6z"/>
	<path class="st104" d="M556,128.8l-3,7.6h-10.8L560,95.3h10.8l17.3,41.1H577l-2.9-7.6H556z M565.1,105.7l-6,15.2H571L565.1,105.7z"
		/>
</g>
<g class="st103">
	<path class="st104" d="M310.8,154.6c12.9,0,21.9,8.3,21.9,20.6c0,12.2-9,20.6-22.3,20.6h-17.3v-41.1H310.8z M303.6,187.4h7.5
		c6.4,0,11-4.9,11-12.2c0-7.3-4.8-12.3-11.5-12.3h-7V187.4z"/>
	<path class="st104" d="M348.7,162.8v8.2h19.6v8.2h-19.6v8.3H371v8.2h-32.8v-41.1h32.2v8.2H348.7z"/>
	<path class="st104" d="M419.3,187v8.8h-27.9v-41.1h10.5V187H419.3z"/>
	<path class="st104" d="M433.9,188.1l-3,7.6h-10.8l17.7-41.1h10.8l17.3,41.1h-11.2l-2.9-7.6H433.9z M442.9,165l-6,15.2h11.9
		L442.9,165z"/>
</g>
<g class="st103">
	<path class="st104" d="M329.1,255.1l-0.1-26.7l-9.9,22.6h-6.8l-9.9-22.6v26.7h-9.3v-41.2h11.5l11.2,24.5l11.2-24.5h11.4v41.2H329.1
		z"/>
	<path class="st104" d="M388.4,234.5c0,12-9.5,21.1-22.3,21.1c-12.7,0-22.2-9-22.2-21.1c0-12,9.5-20.9,22.2-20.9
		C378.9,213.6,388.4,222.6,388.4,234.5z M354.6,234.5c0,6.9,5.3,12.3,11.6,12.3c6.3,0,11.4-5.3,11.4-12.3s-5.1-12.2-11.4-12.2
		C359.9,222.4,354.6,227.6,354.6,234.5z"/>
	<path class="st104" d="M405.1,255.1l-16-41.1h11.2l10.5,30.3l10.5-30.3h10.8l-16.2,41.1H405.1z"/>
	<path class="st104" d="M436.2,255.1V214h10.5v41.1H436.2z"/>
	<path class="st104" d="M482.8,246.4v8.8h-27.9V214h10.5v32.4H482.8z"/>
	<path class="st104" d="M487.8,255.1V214h10.5v41.1H487.8z"/>
	<path class="st104" d="M524.1,214c12.9,0,21.9,8.3,21.9,20.6c0,12.2-9,20.6-22.3,20.6h-17.3V214H524.1z M516.9,246.8h7.5
		c6.4,0,11-4.9,11-12.2c0-7.3-4.8-12.3-11.5-12.3h-7V246.8z"/>
	<path class="st104" d="M559.7,247.5l-3,7.6H546l17.7-41.1h10.8l17.3,41.1h-11.2l-2.9-7.6H559.7z M568.8,224.4l-6,15.2h11.9
		L568.8,224.4z"/>
	<path class="st104" d="M613.3,214c12.9,0,21.9,8.3,21.9,20.6c0,12.2-9,20.6-22.3,20.6h-17.3V214H613.3z M606.1,246.8h7.5
		c6.4,0,11-4.9,11-12.2c0-7.3-4.8-12.3-11.5-12.3h-7V246.8z"/>
</g>
</svg>
